<?xml version="1.0" encoding="UTF-8"?>
<!-- Generator: visioncortex VTracer 0.6.2 -->
<svg version="1.1" xmlns="http://www.w3.org/2000/svg" width="1280" height="149">
<path d="M0 0 C1.09783813 -0.00315216 2.19567627 -0.00630432 3.32678223 -0.009552 C5.11892151 -0.00651566 5.11892151 -0.00651566 6.94726562 -0.00341797 C8.16426147 -0.00437469 9.38125732 -0.00533142 10.63513184 -0.00631714 C13.21427461 -0.00699919 15.79341909 -0.00514319 18.37255859 -0.00097656 C22.33630198 0.00437131 26.29993204 -0.00092076 30.26367188 -0.00732422 C32.76237004 -0.00666344 35.26106814 -0.00538229 37.75976562 -0.00341797 C38.95452515 -0.0054422 40.14928467 -0.00746643 41.38024902 -0.009552 C42.47808716 -0.00639984 43.57592529 -0.00324768 44.70703125 0 C46.16477966 0.00119339 46.16477966 0.00119339 47.65197754 0.00241089 C49.85351562 0.12939453 49.85351562 0.12939453 50.85351562 1.12939453 C50.98886296 3.68595526 51.06404862 6.21934476 51.09960938 8.77783203 C51.13255044 10.35596252 51.16576205 11.93408739 51.19921875 13.51220703 C51.24664001 16.009563 51.29105496 18.50689655 51.33032227 21.00439453 C51.37002262 23.40828694 51.42157634 25.81170201 51.47460938 28.21533203 C51.48302353 28.9622934 51.49143768 29.70925476 51.50010681 30.47885132 C51.58930818 34.2162401 51.7288639 35.94241695 53.85351562 39.12939453 C55.09825095 35.39518856 55.08561348 31.85574215 55.16992188 27.96142578 C55.19070297 27.16661301 55.21148407 26.37180023 55.2328949 25.55290222 C55.2982365 23.0159869 55.3572037 20.47896881 55.41601562 17.94189453 C55.45921549 16.22118081 55.50283025 14.50047746 55.546875 12.77978516 C55.65390211 8.5630934 55.75521287 4.34629834 55.85351562 0.12939453 C67.83155121 0.10627263 79.80958153 0.08848023 91.78763485 0.07758236 C97.34890974 0.07235319 102.91016942 0.06525495 108.47143555 0.05395508 C113.83358981 0.04312738 119.1957294 0.03711795 124.55789375 0.03451729 C126.60851841 0.03266283 128.65914222 0.02904181 130.70976067 0.02366447 C133.57141766 0.0164556 136.4330132 0.01540352 139.29467773 0.01586914 C140.57968674 0.01047623 140.57968674 0.01047623 141.89065552 0.00497437 C147.73946346 0.01534237 147.73946346 0.01534237 148.85351562 1.12939453 C148.95468483 4.22020918 148.9932012 7.28822008 148.98632812 10.37939453 C148.98728485 11.3078418 148.98824158 12.23628906 148.98922729 13.19287109 C148.98990918 15.15999418 148.98805434 17.12711949 148.98388672 19.09423828 C148.97853858 22.11642479 148.98383145 25.13846268 148.99023438 28.16064453 C148.98957359 30.06689486 148.98829244 31.9731451 148.98632812 33.87939453 C148.98835236 34.78979492 148.99037659 35.70019531 148.99246216 36.63818359 C148.96846531 43.01444485 148.96846531 43.01444485 147.85351562 44.12939453 C145.52054129 44.17032391 143.18646338 44.17181176 140.85351562 44.12939453 C140.93537721 47.7760796 141.0481259 51.4212104 141.16601562 55.06689453 C141.18857422 56.08847656 141.21113281 57.11005859 141.234375 58.16259766 C141.44902874 64.27047219 141.67935221 70.72899761 144.85351562 76.12939453 C148.49564096 78.48007959 151.56374784 78.58901251 155.85351562 78.12939453 C159.65069003 75.66636249 160.41396813 72.80030076 161.42749023 68.51416016 C162.21928186 64.08194205 162.32980878 59.62158061 162.47851562 55.12939453 C162.53652344 53.68113281 162.53652344 53.68113281 162.59570312 52.20361328 C162.68908503 49.84572013 162.77485891 47.48781697 162.85351562 45.12939453 C161.15195312 45.16033203 161.15195312 45.16033203 159.41601562 45.19189453 C155.85351562 45.12939453 155.85351562 45.12939453 154.85351562 44.12939453 C154.75566221 42.78395126 154.72553577 41.4334689 154.72412109 40.08447266 C154.72096893 39.22688354 154.71781677 38.36929443 154.71456909 37.48571777 C154.71760544 36.08730652 154.71760544 36.08730652 154.72070312 34.66064453 C154.7197464 33.71000122 154.71878967 32.75935791 154.71780396 31.77990723 C154.71712206 29.76570571 154.71897701 27.75150201 154.72314453 25.73730469 C154.72849265 22.64269099 154.72319985 19.54822243 154.71679688 16.45361328 C154.71745765 14.50179004 154.71873881 12.54996689 154.72070312 10.59814453 C154.71867889 9.66587036 154.71665466 8.73359619 154.71456909 7.77307129 C154.71929733 6.48668762 154.71929733 6.48668762 154.72412109 5.17431641 C154.72491669 4.41566284 154.72571228 3.65700928 154.72653198 2.87536621 C154.85351562 1.12939453 154.85351562 1.12939453 155.85351562 0.12939453 C158.80765851 0.02339 161.73854383 -0.0173804 164.69335938 -0.01586914 C165.62204834 -0.01922775 166.5507373 -0.02258636 167.50756836 -0.02604675 C170.60206416 -0.03560238 173.69650595 -0.03750331 176.79101562 -0.03857422 C178.94604515 -0.04178773 181.10107445 -0.04515187 183.25610352 -0.04866028 C187.79248559 -0.0546659 192.3288486 -0.05649912 196.86523438 -0.0559082 C202.63562599 -0.05580743 208.40589217 -0.06936391 214.17625427 -0.08668041 C218.63940981 -0.09789666 223.10253617 -0.09982435 227.56570435 -0.09929848 C229.68963039 -0.10046784 231.81355745 -0.10482992 233.93746948 -0.11263084 C257.48836825 -0.19091153 279.13973562 0.45777634 297.47851562 17.12939453 C301.13969105 20.92699009 303.39239451 24.73654041 305.62695312 29.44189453 C305.94108154 30.08707031 306.25520996 30.73224609 306.57885742 31.39697266 C307.34404717 32.97107729 308.09977634 34.54977501 308.85351562 36.12939453 C308.87857178 35.07437744 308.90362793 34.01936035 308.92944336 32.93237305 C309.02335671 29.03168825 309.12361596 25.13118828 309.22583008 21.23071289 C309.26924001 19.54000154 309.31091051 17.84924463 309.35083008 16.15844727 C309.40838657 13.73325847 309.47212211 11.30830038 309.53710938 8.88330078 C309.55382187 8.12287979 309.57053436 7.3624588 309.5877533 6.57899475 C309.73964392 1.24326624 309.73964392 1.24326624 310.85351562 0.12939453 C312.47478986 0.03077855 314.1003393 0.00140686 315.72460938 0 C316.76238525 -0.00315216 317.80016113 -0.00630432 318.86938477 -0.009552 C320.56309204 -0.00651566 320.56309204 -0.00651566 322.29101562 -0.00341797 C323.44142334 -0.00437469 324.59183105 -0.00533142 325.77709961 -0.00631714 C328.21500706 -0.00699916 330.65291632 -0.00514337 333.09082031 -0.00097656 C336.8372808 0.00437136 340.58362139 -0.00092086 344.33007812 -0.00732422 C346.69205756 -0.00666344 349.05403692 -0.00538229 351.41601562 -0.00341797 C352.54515381 -0.0054422 353.67429199 -0.00746643 354.83764648 -0.009552 C356.3943103 -0.00482376 356.3943103 -0.00482376 357.98242188 0 C358.90095947 0.00079559 359.81949707 0.00159119 360.76586914 0.00241089 C362.85351562 0.12939453 362.85351562 0.12939453 363.85351562 1.12939453 C363.94222835 4.15917257 363.96870913 7.16606475 363.95117188 10.19580078 C363.94904945 11.55873512 363.94904945 11.55873512 363.94688416 12.94920349 C363.94126756 15.86346674 363.92871227 18.77765434 363.91601562 21.69189453 C363.91100276 23.66259655 363.90643949 25.63329977 363.90234375 27.60400391 C363.89129274 32.44583012 363.874017 37.28759948 363.85351562 42.12939453 C364.84351563 42.12939453 365.83351563 42.12939453 366.85351562 42.12939453 C366.8456604 40.27423218 366.8456604 40.27423218 366.83764648 38.3815918 C366.81960001 33.81014728 366.80808492 29.23870594 366.79858398 24.66723633 C366.79354295 22.68546012 366.78671024 20.70368764 366.77807617 18.72192383 C366.76600048 15.87987345 366.76028517 13.03787206 366.75585938 10.19580078 C366.75069809 9.30413712 366.7455368 8.41247345 366.74021912 7.49378967 C366.74002386 5.37198852 366.79141532 3.25028673 366.85351562 1.12939453 C367.85351562 0.12939453 367.85351562 0.12939453 369.9858551 0.00914001 C371.39483315 0.01247093 371.39483315 0.01247093 372.83227539 0.01586914 C373.89329971 0.01594467 374.95432404 0.0160202 376.04750061 0.01609802 C377.20164963 0.02125931 378.35579865 0.02642059 379.54492188 0.03173828 C381.30738503 0.0338607 381.30738503 0.0338607 383.10545349 0.036026 C386.87566626 0.04164461 390.64582066 0.05420027 394.41601562 0.06689453 C396.9648429 0.07190713 399.51367109 0.07647045 402.0625 0.08056641 C408.32619195 0.09162009 414.58984962 0.10837632 420.85351562 0.12939453 C421.03468725 4.24240899 421.2065832 8.35576336 421.37695312 12.46923828 C421.45320923 14.19660217 421.45320923 14.19660217 421.53100586 15.9588623 C421.91402733 25.37619465 421.90966339 34.75314933 420.85351562 44.12939453 C420.52351563 44.45939453 420.19351562 44.78939453 419.85351562 45.12939453 C417.54351562 45.12939453 415.23351562 45.12939453 412.85351562 45.12939453 C412.85351562 57.66939453 412.85351562 70.20939453 412.85351562 83.12939453 C418.79351562 83.12939453 424.73351562 83.12939453 430.85351562 83.12939453 C431.45292969 80.54998047 431.45292969 80.54998047 432.06445312 77.91845703 C433.15872454 73.51693991 434.45863726 69.32478194 436.08007812 65.09033203 C444.22496139 43.1569064 443.93008066 23.63485881 443.85351562 0.12939453 C463.98351562 0.12939453 484.11351562 0.12939453 504.85351562 0.12939453 C508.22881212 8.00508635 508.22881212 8.00508635 509.4440918 11.82592773 C509.71860168 12.68328018 509.99311157 13.54063263 510.27593994 14.42396545 C510.5632196 15.33351486 510.85049927 16.24306427 511.14648438 17.18017578 C511.45398621 18.1443895 511.76148804 19.10860321 512.07830811 20.10203552 C513.06958575 23.21415685 514.05559576 26.32791391 515.04101562 29.44189453 C515.71806628 31.57441773 516.39523125 33.70690463 517.07250977 35.83935547 C519.00616223 41.93394254 520.93132267 48.03118487 522.85351562 54.12939453 C523.23648804 55.34305695 523.23648804 55.34305695 523.62719727 56.58123779 C525.02450794 61.0110688 526.41241028 65.44369665 527.79101562 69.87939453 C528.11416748 70.91104736 528.43731934 71.9427002 528.77026367 73.00561523 C529.05426025 73.92818115 529.33825684 74.85074707 529.63085938 75.80126953 C529.87054443 76.57567383 530.11022949 77.35007812 530.35717773 78.14794922 C530.85351562 80.12939453 530.85351562 80.12939453 530.85351562 83.12939453 C534.81351563 83.12939453 538.77351562 83.12939453 542.85351562 83.12939453 C542.87816076 89.23494163 542.89634933 95.34046004 542.90844727 101.44604492 C542.91348851 103.52482609 542.92032137 105.60360369 542.92895508 107.68237305 C542.94102985 110.66342039 542.94674587 113.64442102 542.95117188 116.62548828 C542.95633316 117.56089951 542.96149445 118.49631073 542.96681213 119.46006775 C542.96688766 120.32088455 542.9669632 121.18170135 542.96704102 122.06860352 C542.96926163 122.83027328 542.97148224 123.59194305 542.97377014 124.37669373 C542.85351562 126.12939453 542.85351562 126.12939453 541.85351562 127.12939453 C539.82857331 127.22348932 537.80031693 127.24682575 535.77319336 127.24291992 C533.82128334 127.24280663 533.82128334 127.24280663 531.8299408 127.24269104 C530.39899661 127.23758362 528.9680528 127.23236761 527.53710938 127.22705078 C526.08122303 127.22518656 524.62533605 127.22376268 523.16944885 127.22276306 C519.33072183 127.21893819 515.49203243 127.20910817 511.65332031 127.19805908 C507.05115791 127.18604951 502.44898296 127.18144258 497.84680939 127.17560577 C490.84901861 127.16589639 483.85131042 127.14673966 476.85351562 127.12939453 C476.85351562 117.55939453 476.85351562 107.98939453 476.85351562 98.12939453 C475.53351563 98.12939453 474.21351563 98.12939453 472.85351562 98.12939453 C472.85351562 107.69939453 472.85351562 117.26939453 472.85351562 127.12939453 C437.87351562 127.12939453 402.89351562 127.12939453 366.85351562 127.12939453 C366.85351562 113.59939453 366.85351562 100.06939453 366.85351562 86.12939453 C365.86351562 86.12939453 364.87351562 86.12939453 363.85351562 86.12939453 C363.85351562 99.65939453 363.85351562 113.18939453 363.85351562 127.12939453 C346.03351563 127.12939453 328.21351563 127.12939453 309.85351562 127.12939453 C309.52351563 115.24939453 309.19351562 103.36939453 308.85351562 91.12939453 C307.53351563 94.42939453 306.21351563 97.72939453 304.85351562 101.12939453 C297.49808884 113.33474993 286.2516904 121.12610261 272.69555664 125.04150391 C258.8694961 128.01237684 244.92750427 127.45816752 230.85351562 127.31689453 C228.22852332 127.30181769 225.60352262 127.2881346 222.97851562 127.27587891 C216.60313471 127.24569244 210.22894021 127.18692677 203.85351562 127.12939453 C203.85351562 112.60939453 203.85351562 98.08939453 203.85351562 83.12939453 C206.82351562 83.12939453 209.79351562 83.12939453 212.85351562 83.12939453 C212.85351562 70.58939453 212.85351562 58.04939453 212.85351562 45.12939453 C210.21351563 45.12939453 207.57351562 45.12939453 204.85351562 45.12939453 C203.5157778 45.00285176 202.17894263 44.85029903 200.85351562 44.62939453 C199.86351562 44.46439453 198.87351563 44.29939453 197.85351562 44.12939453 C197.86511719 45.35529297 197.87671875 46.58119141 197.88867188 47.84423828 C198.25716873 103.76776048 198.25716873 103.76776048 184.63867188 118.53564453 C173.05979726 128.87302055 160.0070697 129.98091717 145.1796875 129.29785156 C133.75819613 128.47072845 122.62393255 124.0727873 114.74023438 115.62939453 C102.21797259 99.03674952 102.67596157 79.66914694 102.79101562 59.81689453 C102.79604675 58.28629706 102.80060677 56.75569796 102.8046875 55.22509766 C102.81555138 51.52649542 102.83272461 47.82795589 102.85351562 44.12939453 C98.89029375 43.69044876 95.63785765 43.8076089 91.85351562 45.12939453 C88.37706869 48.97484552 86.27078615 53.4380572 84.04101562 58.06689453 C83.42312918 59.28045529 82.80140799 60.49207156 82.17578125 61.70166016 C80.96050895 64.05700731 79.76452139 66.41892278 78.57763672 68.7890625 C76.21382761 73.36873345 73.58696508 77.76255003 70.85351562 82.12939453 C72.83351562 82.62439453 72.83351562 82.62439453 74.85351562 83.12939453 C74.85351562 97.64939453 74.85351562 112.16939453 74.85351562 127.12939453 C67.32377424 127.15229675 59.79415271 127.17222591 52.2644043 127.18432617 C49.70059806 127.18936823 47.13679471 127.19620167 44.57299805 127.20483398 C40.89696541 127.21690518 37.22097065 127.22262395 33.54492188 127.22705078 C32.39077286 127.23221207 31.23662384 127.23737335 30.04750061 127.24269104 C28.45596413 127.24280434 28.45596413 127.24280434 26.83227539 127.24291992 C25.8929567 127.24514053 24.953638 127.24736115 23.9858551 127.24964905 C21.85351562 127.12939453 21.85351562 127.12939453 20.85351562 126.12939453 C20.76477428 123.02688253 20.73833107 119.94671333 20.75585938 116.84423828 C20.75727432 115.91341934 20.75868927 114.9826004 20.76014709 114.02357483 C20.7657639 111.03798262 20.77831923 108.05246424 20.79101562 105.06689453 C20.79602846 103.0480154 20.80059174 101.0291351 20.8046875 99.01025391 C20.81573879 94.04993882 20.83301467 89.08967921 20.85351562 84.12939453 C23.32851563 83.63439453 23.32851563 83.63439453 25.85351562 83.12939453 C23.22297755 78.68071292 20.59025836 74.23333215 17.95556641 69.78710938 C17.06076921 68.27639183 16.1665546 66.76532907 15.27294922 65.25390625 C13.98365206 63.0734561 12.69222039 60.89428244 11.40039062 58.71533203 C11.00543396 58.04633881 10.61047729 57.37734558 10.20355225 56.68807983 C9.450878 55.42030774 8.6878929 54.15858571 7.91345215 52.9039917 C6.90753481 51.21983608 6.01564387 49.46909676 5.13183594 47.71777344 C2.53881536 44.77186643 1.84157596 44.67864899 -1.89648438 44.25439453 C-3.31210742 44.18589664 -4.72921804 44.13545123 -6.14648438 44.12939453 C-6.17112951 38.02384743 -6.18931808 31.91832902 -6.20141602 25.81274414 C-6.20645726 23.73396297 -6.21329012 21.65518537 -6.22192383 19.57641602 C-6.2339986 16.59536867 -6.23971462 13.61436804 -6.24414062 10.63330078 C-6.25188255 9.23018394 -6.25188255 9.23018394 -6.25978088 7.79872131 C-6.25985641 6.93790451 -6.25993195 6.07708771 -6.26000977 5.19018555 C-6.26223038 4.42851578 -6.26445099 3.66684601 -6.26673889 2.88209534 C-6.00576827 -0.92153241 -3.16815883 0.00259362 0 0 Z M249.85351562 45.12939453 C249.85351562 57.66939453 249.85351562 70.20939453 249.85351562 83.12939453 C257.92499862 82.12045916 261.20470461 81.51398639 266.10351562 75.25439453 C269.60717698 68.99785639 270.66782154 64.09208801 268.85351562 57.12939453 C266.44890091 51.67572837 263.33787243 47.71026832 257.85351562 45.12939453 C255.21351563 45.12939453 252.57351563 45.12939453 249.85351562 45.12939453 Z M310.85351562 45.12939453 C310.52351563 57.66939453 310.19351562 70.20939453 309.85351562 83.12939453 C312.49351562 83.12939453 315.13351562 83.12939453 317.85351562 83.12939453 C317.85351562 70.58939453 317.85351562 58.04939453 317.85351562 45.12939453 C315.54351562 45.12939453 313.23351562 45.12939453 310.85351562 45.12939453 Z " fill="#060DA6" transform="translate(17.146484375,10.87060546875)"/>
<path d="M0 0 C1.01129974 -0.00960754 2.02259949 -0.01921509 3.06454468 -0.02911377 C4.71603012 -0.03548859 4.71603012 -0.03548859 6.40087891 -0.04199219 C7.52434723 -0.04769226 8.64781555 -0.05339233 9.80532837 -0.05926514 C12.18775485 -0.06873209 14.57019453 -0.07525581 16.95263672 -0.07910156 C20.60488651 -0.08880725 24.25657386 -0.11981542 27.90869141 -0.15136719 C30.21858388 -0.15789678 32.5284804 -0.16314742 34.83837891 -0.16699219 C35.93532074 -0.17933899 37.03226257 -0.19168579 38.16244507 -0.20440674 C39.18004913 -0.20140564 40.1976532 -0.19840454 41.24609375 -0.1953125 C42.14242523 -0.19895813 43.03875671 -0.20260376 43.96224976 -0.20635986 C46.7108404 0.23468922 47.5907001 0.96829599 49.25244141 3.16113281 C49.60888672 5.05200195 49.60888672 5.05200195 49.58056641 7.19628906 C49.57605469 7.99776367 49.57154297 8.79923828 49.56689453 9.625 C49.545625 10.48254883 49.52435547 11.34009766 49.50244141 12.22363281 C49.48600586 13.54282715 49.48600586 13.54282715 49.46923828 14.88867188 C49.32489954 23.6588192 48.84422908 32.41112942 48.25244141 41.16113281 C49.24244141 41.16113281 50.23244141 41.16113281 51.25244141 41.16113281 C51.23673096 39.45799927 51.23673096 39.45799927 51.22070312 37.72045898 C51.18452085 33.51053008 51.16154739 29.30061494 51.14257812 25.09057617 C51.1325165 23.26796152 51.1188658 21.44536302 51.1015625 19.62280273 C51.07732119 17.00402847 51.06596002 14.3854675 51.05712891 11.76660156 C51.04680634 10.95088181 51.03648376 10.13516205 51.02584839 9.29472351 C51.0250728 5.38982526 51.03593479 3.48589273 53.25244141 0.16113281 C55.41564941 -0.20635986 55.41564941 -0.20635986 58.12939453 -0.1953125 C59.14384644 -0.1983136 60.15829834 -0.2013147 61.20349121 -0.20440674 C62.30245728 -0.19205994 63.40142334 -0.17971313 64.53369141 -0.16699219 C65.65811646 -0.16511902 66.7825415 -0.16324585 67.94104004 -0.16131592 C70.32172606 -0.15458428 72.70240081 -0.14064796 75.08300781 -0.12011719 C78.73724587 -0.0889966 82.39105281 -0.0791514 86.04541016 -0.07324219 C88.35400919 -0.06407123 90.66260382 -0.05369516 92.97119141 -0.04199219 C94.07015747 -0.03774231 95.16912354 -0.03349243 96.3013916 -0.02911377 C97.82306946 -0.01470245 97.82306946 -0.01470245 99.37548828 0 C100.71879211 0.010242 100.71879211 0.010242 102.0892334 0.02069092 C104.25244141 0.16113281 104.25244141 0.16113281 106.25244141 1.16113281 C106.25244141 15.68113281 106.25244141 30.20113281 106.25244141 45.16113281 C102.78744141 45.65613281 102.78744141 45.65613281 99.25244141 46.16113281 C97.93382776 47.25248819 97.93382776 47.25248819 98.15478516 49.93334961 C98.16638672 51.14676025 98.17798828 52.3601709 98.18994141 53.61035156 C98.19372803 54.26058792 98.19751465 54.91082428 98.20141602 55.58076477 C98.21777345 58.36926938 98.24568499 61.15762886 98.27294922 63.94604492 C98.2911585 65.97997343 98.30318315 68.01387709 98.31494141 70.04785156 C98.32654297 71.26690186 98.33814453 72.48595215 98.35009766 73.74194336 C98.25244141 77.16113281 98.25244141 77.16113281 97.25244141 83.16113281 C103.19244141 83.16113281 109.13244141 83.16113281 115.25244141 83.16113281 C115.66236328 81.40929687 116.07228516 79.65746094 116.49462891 77.85253906 C117.52270163 73.7166907 118.70252217 69.77894874 120.26025391 65.81347656 C126.5333753 49.26013531 127.15191843 33.82904358 127.12792969 16.30932617 C127.1277887 15.38921249 127.12764771 14.46909882 127.12750244 13.52110291 C127.12235474 11.77384902 127.10617278 10.02658371 127.07757568 8.27955627 C127.06283345 6.23930227 127.14849547 4.19879053 127.25244141 2.16113281 C129.90382101 -0.49024679 131.14610301 -0.09704077 134.84790039 -0.11352539 C136.01929062 -0.1230574 137.19068085 -0.13258942 138.39756775 -0.14241028 C139.66838699 -0.14149887 140.93920624 -0.14058746 142.24853516 -0.13964844 C143.54815689 -0.14393356 144.84777863 -0.14821869 146.18678284 -0.15263367 C148.93991163 -0.16010071 151.69291221 -0.15980131 154.44604492 -0.15454102 C157.97481302 -0.14874749 161.50305605 -0.16567143 165.03173733 -0.18888569 C168.39569223 -0.20715873 171.75953083 -0.20343784 175.12353516 -0.20214844 C177.02672768 -0.21596306 177.02672768 -0.21596306 178.96836853 -0.23005676 C180.14291092 -0.22382797 181.31745331 -0.21759918 182.52758789 -0.21118164 C183.56302231 -0.21181107 184.59845673 -0.21244049 185.66526794 -0.21308899 C188.25244141 0.16113281 188.25244141 0.16113281 190.04249573 1.52096558 C191.76451404 3.85528361 192.47237838 6.20610271 193.34619141 8.96972656 C193.73145996 10.17459717 194.11672852 11.37946777 194.51367188 12.62084961 C194.92687331 13.94669066 195.33978852 15.27262094 195.75244141 16.59863281 C196.186879 17.97098125 196.62195008 19.34312928 197.05761719 20.71508789 C200.96668748 33.07167132 204.74776534 45.46969934 208.49658203 57.87573242 C210.95940444 66.01582184 213.5187853 74.10638329 216.25244141 82.16113281 C221.86244141 82.49113281 227.47244141 82.82113281 233.25244141 83.16113281 C233.25244141 70.95113281 233.25244141 58.74113281 233.25244141 46.16113281 C230.94244141 45.83113281 228.63244141 45.50113281 226.25244141 45.16113281 C224.54294803 41.74214606 225.08922891 37.82951669 225.08447266 34.06738281 C225.08114426 33.16491821 225.07781586 32.26245361 225.0743866 31.3326416 C225.06931946 29.42277538 225.06697821 27.51290028 225.06713867 25.60302734 C225.06495029 22.67302981 225.04678722 19.74340753 225.02783203 16.81347656 C225.02489851 14.96061327 225.02291344 13.10774819 225.02197266 11.25488281 C225.01478714 10.37465454 225.00760162 9.49442627 225.00019836 8.58752441 C225.02361592 2.3899583 225.02361592 2.3899583 227.25244141 0.16113281 C229.63861084 -0.0995636 229.63861084 -0.0995636 232.67333984 -0.11352539 C233.80922546 -0.1230574 234.94511108 -0.13258942 236.11541748 -0.14241028 C237.96988495 -0.14104317 237.96988495 -0.14104317 239.86181641 -0.13964844 C241.13534973 -0.14393356 242.40888306 -0.14821869 243.7210083 -0.15263367 C246.42807659 -0.15839097 249.13476565 -0.15979886 251.84179688 -0.15454102 C255.27084278 -0.14881136 258.699337 -0.16550936 262.12829208 -0.18888569 C265.43531978 -0.20741326 268.7422375 -0.20343138 272.04931641 -0.20214844 C273.26133728 -0.21135818 274.47335815 -0.22056793 275.72210693 -0.23005676 C289.27307259 -0.15814291 301.95968818 1.71650208 312.31494141 11.01269531 C320.49226191 19.56480968 320.74096 29.20698334 320.64355469 40.49975586 C320.62744752 42.72278971 320.64347842 44.94401292 320.66259766 47.16699219 C320.67151141 54.43521361 320.28956873 60.44362599 317.25244141 67.16113281 C317.27992335 69.65232597 317.6919197 71.71521989 318.25244141 74.16113281 C318.58244141 73.50113281 318.91244141 72.84113281 319.25244141 72.16113281 C321.3565378 72.13411874 323.46073318 72.11473058 325.56494141 72.09863281 C326.73669922 72.08703125 327.90845703 72.07542969 329.11572266 72.06347656 C332.25244141 72.16113281 332.25244141 72.16113281 335.25244141 73.16113281 C335.30226762 77.98086072 335.33836069 82.80043521 335.36230469 87.62036133 C335.37229758 89.25645564 335.38589648 90.8925324 335.40332031 92.52856445 C335.6424126 115.57284173 335.6424126 115.57284173 328.06103516 123.50097656 C321.0137005 129.96991226 313.20951849 129.62483892 304.21289062 129.28857422 C295.73922849 128.73773342 289.93158268 125.35779775 284.25244141 119.16113281 C281.25244141 114.94238281 281.25244141 114.94238281 281.25244141 112.16113281 C280.59244141 112.16113281 279.93244141 112.16113281 279.25244141 112.16113281 C279.25244141 117.11113281 279.25244141 122.06113281 279.25244141 127.16113281 C240.64244141 127.16113281 202.03244141 127.16113281 162.25244141 127.16113281 C160.86935359 124.39495718 161.14033944 122.15095282 161.15478516 119.05957031 C161.15800781 117.84785156 161.16123047 116.63613281 161.16455078 115.38769531 C161.17292969 114.11667969 161.18130859 112.84566406 161.18994141 111.53613281 C161.19445312 110.25738281 161.19896484 108.97863281 161.20361328 107.66113281 C161.21542937 104.49441989 161.23190326 101.32779926 161.25244141 98.16113281 C160.26244141 98.82113281 159.27244141 99.48113281 158.25244141 100.16113281 C157.92244141 109.07113281 157.59244141 117.98113281 157.25244141 127.16113281 C122.60244141 127.16113281 87.95244141 127.16113281 52.25244141 127.16113281 C50.61586386 123.88797773 51.00936071 120.25491051 50.93603516 116.65332031 C50.91525406 115.8127005 50.89447296 114.97208069 50.87306213 114.10598755 C50.80758702 111.41612046 50.74869121 108.72615439 50.68994141 106.03613281 C50.64675424 104.21450792 50.60313989 102.3928931 50.55908203 100.57128906 C50.45190773 96.10133887 50.35063455 91.63128895 50.25244141 87.16113281 C48.82418155 88.36104271 48.82418155 88.36104271 49.13891602 91.85473633 C49.13916714 93.49984572 49.14472957 95.14496038 49.15478516 96.79003906 C49.15579224 97.5557019 49.15679932 98.32136475 49.15783691 99.11022949 C49.16308478 101.98137908 49.17704593 104.85250739 49.18994141 107.72363281 C49.21056641 114.13800781 49.23119141 120.55238281 49.25244141 127.16113281 C31.43244141 127.16113281 13.61244141 127.16113281 -4.74755859 127.16113281 C-4.93318359 120.08675781 -5.11880859 113.01238281 -5.31005859 105.72363281 C-5.37136963 103.48783447 -5.43268066 101.25203613 -5.49584961 98.94848633 C-5.53979327 97.1873473 -5.58335807 95.42619877 -5.62646484 93.66503906 C-5.65317261 92.74170776 -5.67988037 91.81837646 -5.70739746 90.86706543 C-5.72782104 89.9941687 -5.74824463 89.12127197 -5.76928711 88.22192383 C-5.78927261 87.46025406 -5.80925812 86.69858429 -5.82984924 85.91383362 C-5.74755859 84.16113281 -5.74755859 84.16113281 -4.74755859 83.16113281 C-2.76755859 83.16113281 -0.78755859 83.16113281 1.25244141 83.16113281 C1.25244141 70.62113281 1.25244141 58.08113281 1.25244141 45.16113281 C-0.72755859 45.16113281 -2.70755859 45.16113281 -4.74755859 45.16113281 C-4.91539885 38.91333815 -5.07535966 32.66537808 -5.22973633 26.41723633 C-5.28324066 24.28991076 -5.33857623 22.16263045 -5.39575195 20.03540039 C-5.4774284 16.98496262 -5.55260541 13.93442484 -5.62646484 10.88378906 C-5.65349991 9.92650406 -5.68053497 8.96921906 -5.70838928 7.98292542 C-5.72848557 7.10208786 -5.74858185 6.22125031 -5.76928711 5.3137207 C-5.78927261 4.53428604 -5.80925812 3.75485138 -5.82984924 2.95179749 C-5.65908565 -0.76406 -3.11955916 0.02380619 0 0 Z M280.25244141 1.16113281 C280.25244141 1.49113281 280.25244141 1.82113281 280.25244141 2.16113281 C282.23244141 2.16113281 284.21244141 2.16113281 286.25244141 2.16113281 C286.25244141 1.83113281 286.25244141 1.50113281 286.25244141 1.16113281 C284.27244141 1.16113281 282.29244141 1.16113281 280.25244141 1.16113281 Z M2.25244141 46.16113281 C2.25244141 58.70113281 2.25244141 71.24113281 2.25244141 84.16113281 C2.58244141 84.16113281 2.91244141 84.16113281 3.25244141 84.16113281 C3.25244141 71.62113281 3.25244141 59.08113281 3.25244141 46.16113281 C2.92244141 46.16113281 2.59244141 46.16113281 2.25244141 46.16113281 Z " fill="#060DA6" transform="translate(599.74755859375,9.8388671875)"/>
<path d="M0 0 C10.78730332 7.5910653 17.81733312 16.76933247 21.0625 29.75 C21.3925 18.2 21.7225 6.65 22.0625 -5.25 C28.47165943 -5.48036116 34.86635582 -5.6790445 41.27636719 -5.79931641 C43.45329548 -5.84945368 45.62988952 -5.9175863 47.80566406 -6.00439453 C65.78647319 -6.70355683 65.78647319 -6.70355683 71.08789062 -3.31787109 C73.190381 -0.73209014 74.60899243 1.7572092 76.0625 4.75 C77.17708201 6.4022682 78.31214897 8.04093055 79.46875 9.6640625 C80.5048571 11.23117449 81.53616951 12.80146779 82.5625 14.375 C83.366875 15.59509766 83.366875 15.59509766 84.1875 16.83984375 C85.48355693 18.80707302 86.77515667 20.7770625 88.0625 22.75 C88.08755615 21.93732666 88.1126123 21.12465332 88.13842773 20.28735352 C88.25399118 16.62889248 88.37689584 12.97071472 88.5 9.3125 C88.55897461 7.3934082 88.55897461 7.3934082 88.61914062 5.43554688 C88.66103516 4.22060547 88.70292969 3.00566406 88.74609375 1.75390625 C88.78275146 0.62799072 88.81940918 -0.4979248 88.85717773 -1.65795898 C89.0625 -4.25 89.0625 -4.25 90.0625 -5.25 C91.62797048 -5.34326716 93.19762772 -5.36745582 94.76586914 -5.36352539 C95.76683121 -5.36344986 96.76779327 -5.36337433 97.79908752 -5.36329651 C98.8876152 -5.35813522 99.97614288 -5.35297394 101.09765625 -5.34765625 C102.7602372 -5.34553383 102.7602372 -5.34553383 104.45640564 -5.34336853 C108.01263069 -5.33775033 111.56879383 -5.32519475 115.125 -5.3125 C117.52929597 -5.30748734 119.93359292 -5.30292403 122.33789062 -5.29882812 C128.24613706 -5.2886239 134.15424885 -5.26905205 140.0625 -5.25 C140.0625 9.27 140.0625 23.79 140.0625 38.75 C137.0925 38.75 134.1225 38.75 131.0625 38.75 C131.06472061 39.77508163 131.06694122 40.80016327 131.06922913 41.85630798 C131.08946041 51.4950696 131.10447207 61.13382694 131.11431217 70.77260494 C131.11954103 75.72853922 131.12663874 80.68445642 131.13793945 85.64038086 C131.14876822 90.41898836 131.15477681 95.19757938 131.15737724 99.9761982 C131.15923151 101.80353619 131.16285216 103.63087324 131.16823006 105.45820427 C131.17544036 108.00853329 131.17649095 110.55879337 131.17602539 113.10913086 C131.17962067 113.87229614 131.18321594 114.63546143 131.18692017 115.42175293 C131.17655216 120.63594784 131.17655216 120.63594784 130.0625 121.75 C125.06246987 122.18765563 120.06244965 122.32093282 115.0456543 122.4296875 C113.36034029 122.47623688 111.67547148 122.54430446 109.99194336 122.63476562 C96.09103747 123.3687707 96.09103747 123.3687707 91.35400391 119.58862305 C89.26851018 116.74324597 87.6606912 113.89176931 86.0625 110.75 C84.94884731 109.06484049 83.81436084 107.39320244 82.65625 105.73828125 C81.62213746 104.18158529 80.59134363 102.62268327 79.5625 101.0625 C77.7475 98.319375 75.9325 95.57625 74.0625 92.75 C73.7325 102.32 73.4025 111.89 73.0625 121.75 C65.81758786 121.77290278 58.57280031 121.79283177 51.32788086 121.80493164 C48.86107967 121.80997356 46.39428148 121.81680691 43.92749023 121.82543945 C40.39045471 121.83751125 36.85345855 121.84322956 33.31640625 121.84765625 C32.20600479 121.85281754 31.09560333 121.85797882 29.95155334 121.86329651 C28.42007912 121.86340981 28.42007912 121.86340981 26.85766602 121.86352539 C25.50198265 121.86685631 25.50198265 121.86685631 24.11891174 121.87025452 C22.0625 121.75 22.0625 121.75 21.0625 120.75 C20.97406207 118.30169574 20.94721248 115.88179401 20.96484375 113.43359375 C20.96696617 112.33701195 20.96696617 112.33701195 20.96913147 111.21827698 C20.97474592 108.87464368 20.98730078 106.53110461 21 104.1875 C21.00501314 102.60221492 21.00957637 101.01692834 21.01367188 99.43164062 C21.02472003 95.5377239 21.04199428 91.64387795 21.0625 87.75 C20.57547607 88.9580127 20.57547607 88.9580127 20.07861328 90.19042969 C19.64274902 91.25680664 19.20688477 92.32318359 18.7578125 93.421875 C18.33000488 94.4747168 17.90219727 95.52755859 17.46142578 96.61230469 C12.28000435 108.23388029 3.7933665 115.30366887 -7.625 120.625 C-23.76838332 126.80668365 -42.01398238 125.83852976 -57.93359375 119.5703125 C-69.41269846 114.39374808 -77.99297086 105.71861362 -83.05078125 94.21875 C-85.3617365 88.10102118 -86.48943926 82.0249292 -87.25 75.5625 C-87.33854248 74.82660645 -87.42708496 74.09071289 -87.51831055 73.33251953 C-88.07678315 67.77754564 -87.57811212 63.51550904 -86.9375 57.75 C-95.1875 57.75 -103.4375 57.75 -111.9375 57.75 C-111.9375 51.81 -111.9375 45.87 -111.9375 39.75 C-113.9175 39.75 -115.8975 39.75 -117.9375 39.75 C-117.9375 52.29 -117.9375 64.83 -117.9375 77.75 C-113.9775 77.75 -110.0175 77.75 -105.9375 77.75 C-105.9375 92.27 -105.9375 106.79 -105.9375 121.75 C-126.0675 121.75 -146.1975 121.75 -166.9375 121.75 C-166.9375 107.23 -166.9375 92.71 -166.9375 77.75 C-162.9775 77.75 -159.0175 77.75 -154.9375 77.75 C-154.9375 65.21 -154.9375 52.67 -154.9375 39.75 C-156.9175 39.75 -158.8975 39.75 -160.9375 39.75 C-160.9375 45.69 -160.9375 51.63 -160.9375 57.75 C-170.1775 57.75 -179.4175 57.75 -188.9375 57.75 C-188.95844499 49.69083309 -188.97848314 41.63176421 -188.98925018 33.57259369 C-188.99454008 29.81994976 -189.00161391 26.06732825 -189.01293945 22.31469727 C-189.02377141 18.70318313 -189.02977749 15.09169079 -189.03237724 11.48016167 C-189.03423094 10.09939671 -189.03785049 8.718633 -189.04323006 7.33787727 C-189.05044447 5.41024048 -189.05090809 3.48258193 -189.05102539 1.55493164 C-189.053246 0.45572891 -189.05546661 -0.64347382 -189.05775452 -1.77598572 C-188.9375 -4.25 -188.9375 -4.25 -187.9375 -5.25 C-186.59910527 -5.34742068 -185.25563175 -5.37631559 -183.91369629 -5.37698364 C-182.61381523 -5.38121338 -182.61381523 -5.38121338 -181.28767395 -5.38552856 C-180.3297142 -5.38350433 -179.37175446 -5.3814801 -178.38476562 -5.37939453 C-177.38160812 -5.38114685 -176.37845062 -5.38289917 -175.34489441 -5.38470459 C-172.01116228 -5.38912516 -168.67748271 -5.38618439 -165.34375 -5.3828125 C-163.03828928 -5.38348548 -160.73282864 -5.38445545 -158.42736816 -5.38571167 C-153.58845343 -5.38718892 -148.74955713 -5.38503321 -143.91064453 -5.38037109 C-137.69255355 -5.3746738 -131.47450572 -5.37795266 -125.25641632 -5.38394356 C-120.49366935 -5.38754843 -115.7309327 -5.38641092 -110.96818542 -5.38381577 C-108.67473851 -5.38314629 -106.38129068 -5.38397562 -104.08784485 -5.38629532 C-100.88861594 -5.38882064 -97.68945797 -5.38498295 -94.49023438 -5.37939453 C-93.05329475 -5.38243088 -93.05329475 -5.38243088 -91.58732605 -5.38552856 C-90.72073868 -5.38270874 -89.85415131 -5.37988892 -88.96130371 -5.37698364 C-88.2039669 -5.37660662 -87.4466301 -5.37622959 -86.66634369 -5.37584114 C-84.9375 -5.25 -84.9375 -5.25 -83.9375 -4.25 C-83.7790735 -2.1791528 -83.68625578 -0.10321971 -83.62109375 1.97265625 C-83.57919922 3.23271484 -83.53730469 4.49277344 -83.49414062 5.79101562 C-83.45432404 7.13150736 -83.41461186 8.4720022 -83.375 9.8125 C-83.33181958 11.15691523 -83.28820544 12.5013166 -83.24414062 13.84570312 C-83.13764642 17.1470234 -83.0356354 20.44842236 -82.9375 23.75 C-82.62514404 23.15977051 -82.31278809 22.56954102 -81.9909668 21.96142578 C-74.82362281 8.69418575 -64.85809534 -0.63886717 -50.48046875 -5.5234375 C-34.33276584 -10.1370669 -14.4566148 -8.63052004 0 0 Z M22.0625 38.75 C22.0625 51.62 22.0625 64.49 22.0625 77.75 C24.7025 77.75 27.3425 77.75 30.0625 77.75 C30.0625 64.88 30.0625 52.01 30.0625 38.75 C27.4225 38.75 24.7825 38.75 22.0625 38.75 Z M-39.83203125 43.85546875 C-43.81411017 50.67987963 -44.76004192 57.05069024 -42.9375 64.75 C-41.14345244 69.88468785 -38.84315796 74.06356826 -33.9375 76.75 C-30.87253351 77.07294477 -30.87253351 77.07294477 -27.9375 75.75 C-22.72113469 70.77074221 -20.95561237 65.64033305 -20.5625 58.4375 C-20.73060143 51.89275107 -22.92213701 45.97750646 -27.3125 41.125 C-32.71119669 38.29711126 -36.16192085 38.78382752 -39.83203125 43.85546875 Z M62.0625 74.75 C62.0625 75.74 62.0625 76.73 62.0625 77.75 C62.7225 77.42 63.3825 77.09 64.0625 76.75 C63.4025 76.09 62.7425 75.43 62.0625 74.75 Z " fill="#060DA7" transform="translate(1120.9375,16.25)"/>
<path d="M0 0 C0.91434814 -0.00637985 1.82869629 -0.0127597 2.77075195 -0.01933289 C3.76034912 -0.02044571 4.74994629 -0.02155853 5.76953125 -0.02270508 C6.78297607 -0.02603348 7.7964209 -0.02936188 8.84057617 -0.03279114 C10.98583522 -0.03785948 13.13110216 -0.04019949 15.27636719 -0.04003906 C18.56849047 -0.04222733 21.86027973 -0.06038901 25.15234375 -0.0793457 C27.23307177 -0.08227921 29.31380138 -0.08426429 31.39453125 -0.08520508 C32.38412842 -0.09239059 33.37372559 -0.09957611 34.39331055 -0.10697937 C35.30765869 -0.10390274 36.22200684 -0.10082611 37.1640625 -0.09765625 C38.37412964 -0.09979378 38.37412964 -0.09979378 39.60864258 -0.10197449 C41.58203125 0.14526367 41.58203125 0.14526367 43.58203125 2.14526367 C43.72720869 5.05461947 43.76833921 7.86520967 43.70703125 10.77026367 C43.69800781 11.57206055 43.68898437 12.37385742 43.6796875 13.19995117 C43.65609348 15.1818489 43.6202219 17.16359348 43.58203125 19.14526367 C41.27203125 19.14526367 38.96203125 19.14526367 36.58203125 19.14526367 C40.74331544 27.57863547 45.00367163 35.92769513 49.58203125 44.14526367 C50.113125 43.07147461 50.64421875 41.99768555 51.19140625 40.89135742 C51.9048387 39.45510525 52.61838654 38.01891039 53.33203125 36.58276367 C53.68007812 35.87829102 54.028125 35.17381836 54.38671875 34.44799805 C56.64040733 29.91975341 59.03295537 25.51428787 61.58203125 21.14526367 C60.61265625 20.67088867 59.64328125 20.19651367 58.64453125 19.70776367 C55.58203125 18.14526367 55.58203125 18.14526367 54.58203125 17.14526367 C54.45549927 14.65287798 54.396833 12.20055926 54.39453125 9.70776367 C54.38228516 9.01360352 54.37003906 8.31944336 54.35742188 7.60424805 C54.35213283 5.78305466 54.46033918 3.96239447 54.58203125 2.14526367 C57.10204597 -0.37475105 58.64954093 -0.09407761 62.08705139 -0.11468506 C63.23807594 -0.1062558 63.23807594 -0.1062558 64.41235352 -0.09765625 C65.22058563 -0.0995546 66.02881775 -0.10145294 66.86154175 -0.10340881 C69.54060479 -0.10712209 72.21939844 -0.09640546 74.8984375 -0.08520508 C76.7540636 -0.08401358 78.60969031 -0.08356005 80.46531677 -0.08381653 C84.35671761 -0.08225076 88.24802657 -0.07395335 92.1394043 -0.06054688 C97.13894657 -0.04354509 102.13838788 -0.03973281 107.13795567 -0.04049206 C110.96995516 -0.04022075 114.80193238 -0.03474612 118.63392448 -0.02749062 C120.47800465 -0.0242984 122.32208734 -0.02233526 124.16617012 -0.02159691 C126.73785877 -0.01943984 129.30943816 -0.01070979 131.88110352 0 C132.65047745 -0.00045319 133.41985138 -0.00090637 134.21253967 -0.00137329 C139.46755655 0.03078897 139.46755655 0.03078897 140.58203125 1.14526367 C140.66834999 2.4879378 140.68909598 3.83500689 140.6796875 5.18041992 C140.67646484 5.98930664 140.67324219 6.79819336 140.66992188 7.6315918 C140.66154297 8.48172852 140.65316406 9.33186523 140.64453125 10.20776367 C140.64001953 11.06176758 140.63550781 11.91577148 140.63085938 12.7956543 C140.61903498 14.91222031 140.60109894 17.02875052 140.58203125 19.14526367 C138.27203125 19.14526367 135.96203125 19.14526367 133.58203125 19.14526367 C133.65122101 25.38954396 133.73933921 31.63317454 133.84448242 37.87695312 C133.8775956 39.99797314 133.90566925 42.1190784 133.9284668 44.24023438 C133.96226394 47.30139251 134.01459174 50.36177905 134.0703125 53.42260742 C134.07989738 54.82941017 134.07989738 54.82941017 134.0896759 56.26463318 C134.24456478 63.30910205 134.96965922 70.24262808 139.83203125 75.64526367 C144.4249169 78.15047403 148.1281405 78.31775918 153.26953125 77.70776367 C157.21847527 75.84505423 158.08558893 74.34841462 159.85546875 70.50854492 C161.74906264 64.34927448 161.71891014 58.08621001 161.6796875 51.71166992 C161.67827255 50.83373276 161.6768576 49.95579559 161.67539978 49.05125427 C161.66983946 46.27005486 161.65729446 43.48893842 161.64453125 40.70776367 C161.63951112 38.81258255 161.63494911 36.91740016 161.63085938 35.0222168 C161.61988305 30.39653419 161.60264607 25.77091296 161.58203125 21.14526367 C159.27203125 20.15526367 156.96203125 19.16526367 154.58203125 18.14526367 C154.58203125 12.53526367 154.58203125 6.92526367 154.58203125 1.14526367 C157.95720794 -0.54232467 161.78058724 0.00373009 165.4921875 0.01245117 C166.37482773 0.01149445 167.25746796 0.01053772 168.16685486 0.009552 C170.03384472 0.00887098 171.90083694 0.01071983 173.76782227 0.01489258 C176.63628413 0.02024827 179.50458986 0.01494169 182.37304688 0.00854492 C184.1835941 0.00920559 185.99414122 0.01048652 187.8046875 0.01245117 C189.09996117 0.00941483 189.09996117 0.00941483 190.42140198 0.00631714 C196.46707686 0.03030928 196.46707686 0.03030928 197.58203125 1.14526367 C197.66834999 2.4879378 197.68909598 3.83500689 197.6796875 5.18041992 C197.67646484 5.98930664 197.67324219 6.79819336 197.66992188 7.6315918 C197.66154297 8.48172852 197.65316406 9.33186523 197.64453125 10.20776367 C197.64001953 11.06176758 197.63550781 11.91577148 197.63085938 12.7956543 C197.61903498 14.91222031 197.60109894 17.02875052 197.58203125 19.14526367 C195.27203125 19.14526367 192.96203125 19.14526367 190.58203125 19.14526367 C190.57616501 19.74502014 190.57029877 20.34477661 190.56425476 20.96270752 C190.499853 27.25823111 190.41531841 33.55326539 190.31958008 39.84838867 C190.28651828 42.19142161 190.25842931 44.53453061 190.2355957 46.87768555 C190.20170291 50.26408013 190.1493716 53.64978929 190.09375 57.03588867 C190.08736008 58.06764221 190.08097015 59.09939575 190.0743866 60.16241455 C189.82628512 72.69813441 187.00369032 84.99402626 178.41015625 94.47729492 C169.94217688 102.20342139 160.42205057 104.5367795 149.26953125 104.45776367 C148.0155957 104.4493042 148.0155957 104.4493042 146.73632812 104.44067383 C134.32333454 104.19751783 121.57757953 100.14081195 112.58203125 91.14526367 C103.95711371 80.43754871 102.51061596 66.31379353 102.265625 53.05541992 C102.2448439 52.11089462 102.22406281 51.16636932 102.20265198 50.19322205 C102.13765771 47.19813794 102.07850625 44.20297174 102.01953125 41.20776367 C101.97629828 39.16804189 101.93268252 37.12832819 101.88867188 35.08862305 C101.7820282 30.10758579 101.68062185 25.12646657 101.58203125 20.14526367 C100.61265625 20.02151367 99.64328125 19.89776367 98.64453125 19.77026367 C97.63390625 19.56401367 96.62328125 19.35776367 95.58203125 19.14526367 C95.08703125 18.15526367 95.08703125 18.15526367 94.58203125 17.14526367 C94.25203125 17.80526367 93.92203125 18.46526367 93.58203125 19.14526367 C92.54433594 19.12979492 91.50664063 19.11432617 90.4375 19.09838867 C85.9586298 20.3145358 85.61383335 20.96638844 83.2578125 24.75463867 C82.11094547 26.78718497 80.99139381 28.83530227 79.89453125 30.89526367 C78.6807724 33.10159002 77.4659078 35.30730838 76.25 37.51245117 C75.64333496 38.62716797 75.03666992 39.74188477 74.41162109 40.89038086 C72.70471169 43.92701232 70.8982578 46.85319678 69.0078125 49.77807617 C61.73257775 61.20758455 58.79272334 69.57634537 60.58203125 83.14526367 C61.55140625 83.12463867 62.52078125 83.10401367 63.51953125 83.08276367 C66.58203125 83.14526367 66.58203125 83.14526367 67.58203125 84.14526367 C67.681901 86.98861415 67.72081006 89.8022353 67.70703125 92.64526367 C67.71089844 93.44319336 67.71476562 94.24112305 67.71875 95.06323242 C67.70863892 101.018656 67.70863892 101.018656 66.58203125 102.14526367 C65.21143532 102.24838404 63.83563466 102.2837532 62.46118164 102.29052734 C61.58679947 102.2969072 60.7124173 102.30328705 59.8115387 102.30986023 C58.38502235 102.31152946 58.38502235 102.31152946 56.9296875 102.31323242 C55.47398598 102.31822502 55.47398598 102.31822502 53.98887634 102.32331848 C51.93179805 102.32839197 49.8747115 102.33072668 47.81762695 102.33056641 C44.66148381 102.33275193 41.50569054 102.35090059 38.34960938 102.36987305 C36.35546995 102.372807 34.36132886 102.37479178 32.3671875 102.37573242 C31.41820084 102.38291794 30.46921417 102.39010345 29.49147034 102.39750671 C28.613936 102.39443008 27.73640167 102.39135345 26.83227539 102.38818359 C26.05807755 102.38960861 25.2838797 102.39103363 24.48622131 102.39250183 C22.58203125 102.14526367 22.58203125 102.14526367 20.58203125 100.14526367 C20.4100184 97.60297208 20.34945508 95.18376371 20.39453125 92.64526367 C20.39517578 91.95561523 20.39582031 91.2659668 20.39648438 90.55541992 C20.441476 85.42637416 20.441476 85.42637416 21.58203125 83.14526367 C23.89203125 83.14526367 26.20203125 83.14526367 28.58203125 83.14526367 C28.99651862 69.1813969 26.11525517 60.4211662 18.51953125 48.83276367 C17.67305863 47.48526769 16.82994625 46.13565493 15.99023438 44.78393555 C14.34579686 42.14615619 12.67587455 39.52766644 10.98388672 36.92016602 C9.37833053 34.43138927 7.85358492 31.91618996 6.38720703 29.34301758 C5.86629234 28.44363213 5.86629234 28.44363213 5.33485413 27.52607727 C4.40048778 25.90199399 3.48386405 24.26773914 2.56860352 22.6328125 C0.15332398 19.60844441 -1.72408938 19.0723212 -5.41796875 18.14526367 C-6.41796875 17.14526367 -6.41796875 17.14526367 -6.515625 13.54760742 C-6.50895095 12.059295 -6.49699058 10.57099935 -6.48046875 9.08276367 C-6.47595703 8.32415039 -6.47144531 7.56553711 -6.46679688 6.78393555 C-6.45497555 4.90434496 -6.43703953 3.02479468 -6.41796875 1.14526367 C-4.0594188 -0.0340113 -2.6298016 0.01242609 0 0 Z " fill="#FCF564" transform="translate(20.41796875,13.854736328125)"/>
<path d="M0 0 C1.8723692 -0.03804312 3.74441986 -0.09932505 5.61523438 -0.18457031 C20.8928945 -0.87532277 20.8928945 -0.87532277 25.82348633 2.61108398 C27.55396825 4.9488196 28.92199053 7.28509154 30.21008301 9.88931274 C32.20218941 13.64889397 34.73052474 17.08759379 37.12451172 20.59887695 C38.18140064 22.18812952 39.23540699 23.77930258 40.28662109 25.37231445 C41.08096558 26.57452637 41.08096558 26.57452637 41.89135742 27.80102539 C42.98057448 29.45118513 44.06943579 31.10157974 45.15795898 32.75219727 C46.74803285 35.16138571 48.34230654 37.56775257 49.93701172 39.97387695 C50.66359734 41.08007385 50.66359734 41.08007385 51.40486145 42.20861816 C51.85931137 42.89363403 52.31376129 43.5786499 52.78198242 44.28442383 C53.17754837 44.88411987 53.57311432 45.48381592 53.98066711 46.10168457 C55.37609989 48.08240354 55.37609989 48.08240354 58.19873047 50.75512695 C58.19873047 40.85512695 58.19873047 30.95512695 58.19873047 20.75512695 C55.88873047 20.42512695 53.57873047 20.09512695 51.19873047 19.75512695 C48.70662608 17.26302256 48.93857386 15.75151907 48.92529297 12.3449707 C48.93302734 11.65532227 48.94076172 10.96567383 48.94873047 10.25512695 C48.93712891 9.2206543 48.93712891 9.2206543 48.92529297 8.1652832 C48.94539754 3.00845988 48.94539754 3.00845988 51.19873047 0.75512695 C54.27224982 0.56729133 57.25415525 0.49965773 60.32763672 0.5246582 C61.23247299 0.52511642 62.13730927 0.52557465 63.06956482 0.52604675 C64.98364573 0.52907025 66.89772416 0.53695946 68.81176758 0.54931641 C71.75269212 0.56757395 74.69330205 0.56982612 77.63427734 0.56958008 C79.49039988 0.57449509 81.34652026 0.58032334 83.20263672 0.5871582 C84.53072105 0.58882744 84.53072105 0.58882744 85.88563538 0.5905304 C92.08268518 0.63908166 92.08268518 0.63908166 93.19873047 1.75512695 C93.28504921 3.09780108 93.3057952 4.44487017 93.29638672 5.7902832 C93.29155273 7.00361328 93.29155273 7.00361328 93.28662109 8.24145508 C93.27405273 9.51666016 93.27405273 9.51666016 93.26123047 10.81762695 C93.25671875 11.67163086 93.25220703 12.52563477 93.24755859 13.40551758 C93.2357342 15.52208359 93.21779815 17.6386138 93.19873047 19.75512695 C90.22873047 19.75512695 87.25873047 19.75512695 84.19873047 19.75512695 C83.86873047 47.14512695 83.53873047 74.53512695 83.19873047 102.75512695 C73.29873047 102.75512695 63.39873047 102.75512695 53.19873047 102.75512695 C49.88725272 99.44364921 47.51518211 97.04302677 45.01660156 93.31958008 C44.16078995 92.05301575 44.16078995 92.05301575 43.28768921 90.76086426 C42.3890062 89.41224304 42.3890062 89.41224304 41.47216797 88.03637695 C40.84267242 87.10088013 40.21317688 86.1653833 39.56460571 85.20153809 C37.56237682 82.22290077 35.56812466 79.23901416 33.57373047 76.25512695 C32.22525964 74.24828888 30.87630631 72.24177492 29.52685547 70.2355957 C28.23736714 68.31530866 26.94829062 66.39474502 25.65966797 64.47387695 C25.0564975 63.57479614 24.45332703 62.67571533 23.83187866 61.74938965 C23.26764191 60.90501343 22.70340515 60.06063721 22.12207031 59.19067383 C21.62863129 58.45296753 21.13519226 57.71526123 20.62680054 56.9552002 C19.09274543 54.59184726 17.64836388 52.17118264 16.19873047 49.75512695 C16.19873047 60.97512695 16.19873047 72.19512695 16.19873047 83.75512695 C19.16873047 83.75512695 22.13873047 83.75512695 25.19873047 83.75512695 C26.19873047 84.75512695 26.19873047 84.75512695 26.31225586 86.52099609 C26.30701904 87.26986084 26.30178223 88.01872559 26.29638672 88.7902832 C26.29316406 89.59916992 26.28994141 90.40805664 26.28662109 91.24145508 C26.27405273 92.51666016 26.27405273 92.51666016 26.26123047 93.81762695 C26.25671875 94.67163086 26.25220703 95.52563477 26.24755859 96.40551758 C26.2357342 98.52208359 26.21779815 100.6386138 26.19873047 102.75512695 C20.111503 102.80446849 14.02439127 102.84081862 7.93701172 102.86499023 C5.865051 102.87506407 3.79310454 102.88872361 1.72119141 102.90600586 C-1.25247717 102.93019359 -4.22595823 102.94159604 -7.19970703 102.95043945 C-8.59508194 102.96592331 -8.59508194 102.96592331 -10.01864624 102.98171997 C-10.87938751 102.98187103 -11.74012878 102.98202209 -12.62695312 102.98217773 C-13.76612686 102.98883957 -13.76612686 102.98883957 -14.92831421 102.99563599 C-16.80126953 102.75512695 -16.80126953 102.75512695 -18.80126953 100.75512695 C-18.97328238 98.21283537 -19.0338457 95.793627 -18.98876953 93.25512695 C-18.988125 92.56547852 -18.98748047 91.87583008 -18.98681641 91.1652832 C-18.94182478 86.03623744 -18.94182478 86.03623744 -17.80126953 83.75512695 C-15.16126953 83.75512695 -12.52126953 83.75512695 -9.80126953 83.75512695 C-9.80126953 62.96512695 -9.80126953 42.17512695 -9.80126953 20.75512695 C-12.11126953 20.42512695 -14.42126953 20.09512695 -16.80126953 19.75512695 C-19.29337392 17.26302256 -19.06142614 15.75151907 -19.07470703 12.3449707 C-19.06697266 11.65532227 -19.05923828 10.96567383 -19.05126953 10.25512695 C-19.05900391 9.56547852 -19.06673828 8.87583008 -19.07470703 8.1652832 C-19.03300528 -2.53121632 -8.27789111 0.12498474 0 0 Z " fill="#FCF564" transform="translate(1163.80126953125,13.244873046875)"/>
<path d="M0 0 C10.66729198 8.5460714 16.64394554 21.87972255 18.5390625 35.1796875 C20.26048824 53.64782286 18.32345771 70.495531 6.1953125 85.17578125 C-3.39252362 95.00371344 -15.50796463 98.62829875 -28.88525391 98.81616211 C-43.80730113 98.85784381 -54.54521262 97.09886412 -67.14453125 88.57421875 C-67.89863281 88.07277344 -68.65273437 87.57132812 -69.4296875 87.0546875 C-78.94513545 79.81267991 -82.83155043 67.64744322 -84.70703125 56.2890625 C-86.70807569 39.29805122 -83.753813 23.64592903 -73.70703125 9.55859375 C-57.08272778 -11.22178558 -21.77833703 -14.47922225 0 0 Z M-40.0390625 40.6796875 C-44.02114142 47.50409838 -44.96707317 53.87490899 -43.14453125 61.57421875 C-41.35048369 66.7089066 -39.05018921 70.88778701 -34.14453125 73.57421875 C-31.07956476 73.89716352 -31.07956476 73.89716352 -28.14453125 72.57421875 C-22.92816594 67.59496096 -21.16264362 62.4645518 -20.76953125 55.26171875 C-20.93763268 48.71696982 -23.12916826 42.80172521 -27.51953125 37.94921875 C-32.91822794 35.12133001 -36.3689521 35.60804627 -40.0390625 40.6796875 Z " fill="#FDF664" transform="translate(1121.14453125,19.42578125)"/>
<path d="M0 0 C0.87430664 -0.00630432 1.74861328 -0.01260864 2.64941406 -0.019104 C4.06818848 -0.01303131 4.06818848 -0.01303131 5.515625 -0.00683594 C6.48467773 -0.00874939 7.45373047 -0.01066284 8.45214844 -0.01263428 C10.50325785 -0.01399673 12.55437586 -0.01029612 14.60546875 -0.00195312 C17.75280039 0.00874547 20.8995612 -0.00184647 24.046875 -0.01464844 C26.0364596 -0.01332685 28.02604384 -0.01076448 30.015625 -0.00683594 C30.96147461 -0.0108844 31.90732422 -0.01493286 32.88183594 -0.019104 C33.75614258 -0.01279968 34.63044922 -0.00649536 35.53125 0 C36.68802246 0.00238678 36.68802246 0.00238678 37.86816406 0.00482178 C39.765625 0.25878906 39.765625 0.25878906 41.765625 2.25878906 C41.91080244 5.16814486 41.95193296 7.97873506 41.890625 10.88378906 C41.88160156 11.68558594 41.87257813 12.48738281 41.86328125 13.31347656 C41.83968723 15.29537429 41.80381565 17.27711887 41.765625 19.25878906 C38.795625 19.58878906 35.825625 19.91878906 32.765625 20.25878906 C33.095625 26.85878906 33.425625 33.45878906 33.765625 40.25878906 C46.635625 40.75378906 46.635625 40.75378906 59.765625 41.25878906 C59.270625 30.86378906 59.270625 30.86378906 58.765625 20.25878906 C56.455625 19.59878906 54.145625 18.93878906 51.765625 18.25878906 C51.765625 12.64878906 51.765625 7.03878906 51.765625 1.25878906 C54.08780179 0.09770067 55.43124031 0.13205059 58.01586914 0.12939453 C58.89340347 0.12624237 59.77093781 0.12309021 60.67506409 0.11984253 C62.09854408 0.12287888 62.09854408 0.12287888 63.55078125 0.12597656 C64.52220566 0.12501984 65.49363007 0.12406311 66.49449158 0.12307739 C68.54979517 0.12239623 70.60510092 0.12424608 72.66040039 0.12841797 C75.81857089 0.13377286 78.97659954 0.12846784 82.13476562 0.12207031 C84.12760448 0.12273099 86.12044325 0.12401194 88.11328125 0.12597656 C89.06429214 0.12395233 90.01530304 0.1219281 90.99513245 0.11984253 C91.86951462 0.12299469 92.74389679 0.12614685 93.64477539 0.12939453 C94.41817764 0.13019012 95.1915799 0.13098572 95.98841858 0.13180542 C97.765625 0.25878906 97.765625 0.25878906 98.765625 1.25878906 C98.85194374 2.60146319 98.87268973 3.94853228 98.86328125 5.29394531 C98.85844727 6.50727539 98.85844727 6.50727539 98.85351562 7.74511719 C98.84094727 9.02032227 98.84094727 9.02032227 98.828125 10.32128906 C98.82361328 11.17529297 98.81910156 12.02929688 98.81445312 12.90917969 C98.80262873 15.0257457 98.78469269 17.14227591 98.765625 19.25878906 C94.805625 19.75378906 94.805625 19.75378906 90.765625 20.25878906 C91.095625 40.38878906 91.425625 60.51878906 91.765625 81.25878906 C94.075625 81.91878906 96.385625 82.57878906 98.765625 83.25878906 C98.765625 89.52878906 98.765625 95.79878906 98.765625 102.25878906 C92.39356627 102.30812603 86.02161804 102.34447858 79.64941406 102.36865234 C77.48044906 102.37872695 75.31149769 102.39238704 73.14257812 102.40966797 C70.02991374 102.43385229 66.91742849 102.44525739 63.8046875 102.45410156 C62.83069 102.46442413 61.8566925 102.4747467 60.85317993 102.48538208 C59.95239716 102.48553314 59.05161438 102.4856842 58.12353516 102.48583984 C57.32855621 102.49028107 56.53357727 102.49472229 55.71450806 102.4992981 C53.765625 102.25878906 53.765625 102.25878906 51.765625 100.25878906 C51.62044756 97.34943326 51.57931704 94.53884306 51.640625 91.63378906 C51.64964844 90.83199219 51.65867187 90.03019531 51.66796875 89.20410156 C51.69156277 87.22220384 51.72743435 85.24045925 51.765625 83.25878906 C54.405625 83.25878906 57.045625 83.25878906 59.765625 83.25878906 C59.435625 75.99878906 59.105625 68.73878906 58.765625 61.25878906 C50.185625 61.25878906 41.605625 61.25878906 32.765625 61.25878906 C33.095625 68.51878906 33.425625 75.77878906 33.765625 83.25878906 C35.745625 83.25878906 37.725625 83.25878906 39.765625 83.25878906 C40.755625 83.75378906 40.755625 83.75378906 41.765625 84.25878906 C41.79246812 87.07135187 41.81238688 89.88366147 41.828125 92.69628906 C41.83650391 93.49873047 41.84488281 94.30117187 41.85351562 95.12792969 C41.8621393 97.17174127 41.8179065 99.21562808 41.765625 101.25878906 C40.20993324 102.81448083 38.71637583 102.39362961 36.55297852 102.40405273 C35.21137413 102.41362251 35.21137413 102.41362251 33.84266663 102.42338562 C32.86978195 102.42449844 31.89689728 102.42561127 30.89453125 102.42675781 C29.40553566 102.43175041 29.40553566 102.43175041 27.88645935 102.43684387 C25.7823025 102.44191747 23.67813757 102.44425207 21.57397461 102.4440918 C18.34540617 102.44627736 15.11717973 102.46442606 11.88867188 102.48339844 C9.84895951 102.48633238 7.80924551 102.48831717 5.76953125 102.48925781 C4.79867081 102.49644333 3.82781036 102.50362885 2.82752991 102.5110321 C1.92997482 102.50795547 1.03241974 102.50487885 0.10766602 102.50170898 C-0.68429672 102.503134 -1.47625946 102.50455902 -2.29222107 102.50602722 C-4.234375 102.25878906 -4.234375 102.25878906 -6.234375 100.25878906 C-6.37945195 97.51393314 -6.42089923 94.87398363 -6.359375 92.13378906 C-6.34583984 91.00263672 -6.34583984 91.00263672 -6.33203125 89.84863281 C-6.3084437 87.98521652 -6.27257219 86.12196314 -6.234375 84.25878906 C-2.769375 83.26878906 -2.769375 83.26878906 0.765625 82.25878906 C0.765625 61.79878906 0.765625 41.33878906 0.765625 20.25878906 C-1.544375 19.59878906 -3.854375 18.93878906 -6.234375 18.25878906 C-6.28819606 15.63351718 -6.32795813 13.00934194 -6.359375 10.38378906 C-6.37613281 9.63742188 -6.39289062 8.89105469 -6.41015625 8.12207031 C-6.4277709 6.16684445 -6.33757689 4.21136885 -6.234375 2.25878906 C-3.8281128 -0.14747314 -3.28330323 0.00677447 0 0 Z " fill="#FDF664" transform="translate(603.234375,13.7412109375)"/>
<path d="M0 0 C0.87430664 -0.00630432 1.74861328 -0.01260864 2.64941406 -0.019104 C4.06818848 -0.01303131 4.06818848 -0.01303131 5.515625 -0.00683594 C6.48467773 -0.00874939 7.45373047 -0.01066284 8.45214844 -0.01263428 C10.50325785 -0.01399673 12.55437586 -0.01029612 14.60546875 -0.00195312 C17.75280039 0.00874547 20.8995612 -0.00184647 24.046875 -0.01464844 C26.0364596 -0.01332685 28.02604384 -0.01076448 30.015625 -0.00683594 C30.96147461 -0.0108844 31.90732422 -0.01493286 32.88183594 -0.019104 C33.75614258 -0.01279968 34.63044922 -0.00649536 35.53125 0 C36.68802246 0.00238678 36.68802246 0.00238678 37.86816406 0.00482178 C39.765625 0.25878906 39.765625 0.25878906 41.765625 2.25878906 C41.91080244 5.16814486 41.95193296 7.97873506 41.890625 10.88378906 C41.88160156 11.68558594 41.87257813 12.48738281 41.86328125 13.31347656 C41.83968723 15.29537429 41.80381565 17.27711887 41.765625 19.25878906 C38.795625 19.58878906 35.825625 19.91878906 32.765625 20.25878906 C33.095625 26.85878906 33.425625 33.45878906 33.765625 40.25878906 C47.130625 40.75378906 47.130625 40.75378906 60.765625 41.25878906 C60.435625 34.65878906 60.105625 28.05878906 59.765625 21.25878906 C57.125625 20.26878906 54.485625 19.27878906 51.765625 18.25878906 C51.765625 12.64878906 51.765625 7.03878906 51.765625 1.25878906 C54.08780179 0.09770067 55.43124031 0.13205059 58.01586914 0.12939453 C58.89340347 0.12624237 59.77093781 0.12309021 60.67506409 0.11984253 C62.09854408 0.12287888 62.09854408 0.12287888 63.55078125 0.12597656 C64.52220566 0.12501984 65.49363007 0.12406311 66.49449158 0.12307739 C68.54979517 0.12239623 70.60510092 0.12424608 72.66040039 0.12841797 C75.81857089 0.13377286 78.97659954 0.12846784 82.13476562 0.12207031 C84.12760448 0.12273099 86.12044325 0.12401194 88.11328125 0.12597656 C89.06429214 0.12395233 90.01530304 0.1219281 90.99513245 0.11984253 C91.86951462 0.12299469 92.74389679 0.12614685 93.64477539 0.12939453 C94.41817764 0.13019012 95.1915799 0.13098572 95.98841858 0.13180542 C97.765625 0.25878906 97.765625 0.25878906 98.765625 1.25878906 C98.85194374 2.60146319 98.87268973 3.94853228 98.86328125 5.29394531 C98.85844727 6.50727539 98.85844727 6.50727539 98.85351562 7.74511719 C98.84094727 9.02032227 98.84094727 9.02032227 98.828125 10.32128906 C98.82361328 11.17529297 98.81910156 12.02929688 98.81445312 12.90917969 C98.80262873 15.0257457 98.78469269 17.14227591 98.765625 19.25878906 C94.805625 19.75378906 94.805625 19.75378906 90.765625 20.25878906 C91.095625 40.38878906 91.425625 60.51878906 91.765625 81.25878906 C94.075625 82.24878906 96.385625 83.23878906 98.765625 84.25878906 C98.765625 90.19878906 98.765625 96.13878906 98.765625 102.25878906 C92.39356627 102.30812603 86.02161804 102.34447858 79.64941406 102.36865234 C77.48044906 102.37872695 75.31149769 102.39238704 73.14257812 102.40966797 C70.02991374 102.43385229 66.91742849 102.44525739 63.8046875 102.45410156 C62.83069 102.46442413 61.8566925 102.4747467 60.85317993 102.48538208 C59.95239716 102.48553314 59.05161438 102.4856842 58.12353516 102.48583984 C57.32855621 102.49028107 56.53357727 102.49472229 55.71450806 102.4992981 C53.765625 102.25878906 53.765625 102.25878906 51.765625 100.25878906 C51.62044756 97.34943326 51.57931704 94.53884306 51.640625 91.63378906 C51.64964844 90.83199219 51.65867187 90.03019531 51.66796875 89.20410156 C51.69156277 87.22220384 51.72743435 85.24045925 51.765625 83.25878906 C54.405625 82.92878906 57.045625 82.59878906 59.765625 82.25878906 C59.79450646 78.94630719 59.81238299 75.63385739 59.828125 72.32128906 C59.84069336 70.90299805 59.84069336 70.90299805 59.85351562 69.45605469 C59.85834961 68.10737305 59.85834961 68.10737305 59.86328125 66.73144531 C59.87113647 65.4824646 59.87113647 65.4824646 59.87915039 64.20825195 C59.98205792 62.25362108 59.98205792 62.25362108 58.765625 61.25878906 C56.83894993 61.17130699 54.90910639 61.15181572 52.98046875 61.16113281 C51.81064453 61.16435547 50.64082031 61.16757813 49.43554688 61.17089844 C48.20384766 61.17927734 46.97214844 61.18765625 45.703125 61.19628906 C44.46755859 61.20080078 43.23199219 61.2053125 41.95898438 61.20996094 C38.89451087 61.22179288 35.83006207 61.23972898 32.765625 61.25878906 C33.095625 67.85878906 33.425625 74.45878906 33.765625 81.25878906 C36.405625 82.24878906 39.045625 83.23878906 41.765625 84.25878906 C41.79246812 87.07135187 41.81238688 89.88366147 41.828125 92.69628906 C41.83650391 93.49873047 41.84488281 94.30117187 41.85351562 95.12792969 C41.8621393 97.17174127 41.8179065 99.21562808 41.765625 101.25878906 C40.20993324 102.81448083 38.71637583 102.39362961 36.55297852 102.40405273 C35.21137413 102.41362251 35.21137413 102.41362251 33.84266663 102.42338562 C32.86978195 102.42449844 31.89689728 102.42561127 30.89453125 102.42675781 C29.40553566 102.43175041 29.40553566 102.43175041 27.88645935 102.43684387 C25.7823025 102.44191747 23.67813757 102.44425207 21.57397461 102.4440918 C18.34540617 102.44627736 15.11717973 102.46442606 11.88867188 102.48339844 C9.84895951 102.48633238 7.80924551 102.48831717 5.76953125 102.48925781 C4.79867081 102.49644333 3.82781036 102.50362885 2.82752991 102.5110321 C1.92997482 102.50795547 1.03241974 102.50487885 0.10766602 102.50170898 C-0.68429672 102.503134 -1.47625946 102.50455902 -2.29222107 102.50602722 C-4.234375 102.25878906 -4.234375 102.25878906 -6.234375 100.25878906 C-6.45992581 97.73086244 -6.55876091 95.3482333 -6.546875 92.82128906 C-6.56298828 92.14001953 -6.57910156 91.45875 -6.59570312 90.75683594 C-6.59850717 87.89390257 -6.54173655 85.76111133 -5.02734375 83.28613281 C-3.234375 82.25878906 -3.234375 82.25878906 1.765625 82.25878906 C1.765625 62.12878906 1.765625 41.99878906 1.765625 21.25878906 C-0.874375 20.26878906 -3.514375 19.27878906 -6.234375 18.25878906 C-6.28819606 15.63351718 -6.32795813 13.00934194 -6.359375 10.38378906 C-6.37613281 9.63742188 -6.39289063 8.89105469 -6.41015625 8.12207031 C-6.4277709 6.16684445 -6.33757689 4.21136885 -6.234375 2.25878906 C-3.8281128 -0.14747314 -3.28330323 0.00677447 0 0 Z " fill="#FCF564" transform="translate(335.234375,13.7412109375)"/>
<path d="M0 0 C0.98928497 -0.01283524 1.97856995 -0.02567047 2.99783325 -0.03889465 C4.07475433 -0.04628159 5.15167542 -0.05366852 6.26123047 -0.0612793 C7.37464813 -0.06935104 8.4880658 -0.07742279 9.63522339 -0.08573914 C12.00419553 -0.09960033 14.37318782 -0.11031333 16.7421875 -0.11816406 C20.31534801 -0.13519739 23.88753909 -0.17904316 27.46044922 -0.22338867 C46.11617039 -0.35039891 64.9621982 0.68040637 79.37451172 14.1027832 C90.9531559 26.88502865 93.97806673 41.3652918 93.39404297 58.07202148 C92.50875386 71.32369283 86.64502255 81.14894336 77.25341797 90.17700195 C61.02457538 103.45514589 40.31524471 102.51977501 20.42749023 102.43774414 C17.26836751 102.42683779 14.10979118 102.43780011 10.95068359 102.45043945 C8.93831255 102.44912084 6.92594184 102.44656466 4.91357422 102.44262695 C3.97103287 102.44667542 3.02849152 102.45072388 2.05738831 102.45489502 C0.75848915 102.44543854 0.75848915 102.44543854 -0.56665039 102.43579102 C-1.32811874 102.43419983 -2.0895871 102.43260864 -2.87413025 102.43096924 C-4.74658203 102.17700195 -4.74658203 102.17700195 -6.74658203 100.17700195 C-6.89175947 97.26764615 -6.93288999 94.45705595 -6.87158203 91.55200195 C-6.86255859 90.75020508 -6.85353516 89.9484082 -6.84423828 89.12231445 C-6.82064426 87.14041673 -6.78477268 85.15867214 -6.74658203 83.17700195 C-4.74658203 82.17700195 -4.74658203 82.17700195 2.25341797 82.17700195 C1.92341797 62.04700195 1.59341797 41.91700195 1.25341797 21.17700195 C-1.38658203 20.18700195 -4.02658203 19.19700195 -6.74658203 18.17700195 C-6.74658203 12.56700195 -6.74658203 6.95700195 -6.74658203 1.17700195 C-4.31514401 -0.03871706 -2.71789568 0.03071557 0 0 Z M36.25341797 42.17700195 C36.25341797 54.71700195 36.25341797 67.25700195 36.25341797 80.17700195 C44.32490097 79.16806658 47.60460695 78.56159381 52.50341797 72.30200195 C56.00707933 66.04546381 57.06772388 61.13969543 55.25341797 54.17700195 C52.84880326 48.72333579 49.73777477 44.75787574 44.25341797 42.17700195 C41.61341797 42.17700195 38.97341797 42.17700195 36.25341797 42.17700195 Z " fill="#FCF564" transform="translate(230.74658203125,13.822998046875)"/>
<path d="M0 0 C1.06936798 -0.01283524 2.13873596 -0.02567047 3.24050903 -0.03889465 C4.40492523 -0.04628159 5.56934143 -0.05366852 6.76904297 -0.0612793 C7.97124481 -0.06935104 9.17344666 -0.07742279 10.41207886 -0.08573914 C12.96936597 -0.09960092 15.52667175 -0.11031365 18.08398438 -0.11816406 C21.94682648 -0.13521378 25.80877579 -0.179062 29.67138672 -0.22338867 C61.25572863 -0.42598046 61.25572863 -0.42598046 72.88623047 8.17700195 C74.74951172 10.4309082 74.74951172 10.4309082 76.19873047 12.73950195 C76.93542969 13.88612305 76.93542969 13.88612305 77.68701172 15.0559082 C81.36472333 21.56078575 81.0112487 30.89515901 79.88623047 38.17700195 C78.16244633 41.77901332 76.08858553 43.84625563 72.88623047 46.17700195 C71.85498047 46.98137695 70.82373047 47.78575195 69.76123047 48.61450195 C67.04023626 50.09330316 64.94404659 50.81725888 61.88623047 51.17700195 C63.08248047 51.69262695 64.27873047 52.20825195 65.51123047 52.73950195 C71.25048149 55.59895148 75.46723017 60.21437841 77.88623047 66.17700195 C78.40899373 69.53762291 78.77122458 72.8966271 79.12841797 76.27856445 C79.57779553 79.3003691 79.57779553 79.3003691 81.95654297 80.57543945 C82.59333984 80.77395508 83.23013672 80.9724707 83.88623047 81.17700195 C84.00998047 80.06325195 84.13373047 78.94950195 84.26123047 77.80200195 C84.88623047 74.17700195 84.88623047 74.17700195 86.88623047 72.17700195 C90.44873047 71.98950195 90.44873047 71.98950195 93.88623047 72.17700195 C96.11493559 74.40570708 95.19697978 79.85822291 95.203125 82.95166016 C95.08606657 89.42238983 93.97913128 93.97912018 89.39013672 98.72387695 C82.90268579 104.4833097 75.08191704 103.71550895 66.90185547 103.35620117 C62.649989 102.97818882 59.38400134 101.54314107 55.88623047 99.17700195 C55.23138672 98.74129883 54.57654297 98.3055957 53.90185547 97.85668945 C48.72398698 93.94119386 46.52324637 89.19842438 45.51171875 82.81274414 C45.17159943 79.50967508 44.93893965 76.20446231 44.71435547 72.8918457 C44.33938872 66.88773311 44.33938872 66.88773311 40.88623047 62.17700195 C38.15738454 61.30101055 35.78891181 61.31745428 32.88623047 61.17700195 C31.68127138 62.16107507 31.68127138 62.16107507 31.77270508 64.03466797 C31.77794189 64.82542725 31.78317871 65.61618652 31.78857422 66.4309082 C31.79179688 67.28491211 31.79501953 68.13891602 31.79833984 69.01879883 C31.80671875 69.91663086 31.81509766 70.81446289 31.82373047 71.73950195 C31.82824219 72.64120117 31.83275391 73.54290039 31.83740234 74.47192383 C31.84922803 76.70697785 31.86716408 78.94199797 31.88623047 81.17700195 C34.52623047 82.16700195 37.16623047 83.15700195 39.88623047 84.17700195 C39.91307359 86.98956477 39.93299234 89.80187436 39.94873047 92.61450195 C39.95710937 93.41694336 39.96548828 94.21938477 39.97412109 95.04614258 C39.98274477 97.08995416 39.93851197 99.13384097 39.88623047 101.17700195 C38.88623047 102.17700195 38.88623047 102.17700195 37.05760193 102.29725647 C35.8618026 102.29392555 35.8618026 102.29392555 34.6418457 102.29052734 C33.7409874 102.29045181 32.84012909 102.29037628 31.91197205 102.29029846 C30.93281326 102.28513718 29.95365448 102.27997589 28.94482422 102.2746582 C27.94741714 102.27324326 26.95001007 102.27182831 25.92237854 102.27037048 C22.72279923 102.2647531 19.52328878 102.25219766 16.32373047 102.23950195 C14.16032002 102.23448919 11.99690847 102.2299259 9.83349609 102.22583008 C4.51771722 102.21477802 -0.79802124 102.19802299 -6.11376953 102.17700195 C-7.7687431 98.86705482 -7.21461288 95.18577195 -7.17626953 91.55200195 C-7.17175781 90.75020508 -7.16724609 89.9484082 -7.16259766 89.12231445 C-7.15080121 87.14051189 -7.13286558 85.15874762 -7.11376953 83.17700195 C-4.47376953 82.84700195 -1.83376953 82.51700195 0.88623047 82.17700195 C0.55623047 62.04700195 0.22623047 41.91700195 -0.11376953 21.17700195 C-2.42376953 20.18700195 -4.73376953 19.19700195 -7.11376953 18.17700195 C-7.11376953 12.56700195 -7.11376953 6.95700195 -7.11376953 1.17700195 C-4.59288574 -0.08343994 -2.82192469 0.02948586 0 0 Z " fill="#FCF564" transform="translate(836.11376953125,13.822998046875)"/>
<path d="M0 0 C0.95486298 0.00444122 1.90972595 0.00888245 2.89352417 0.01345825 C4.51497849 0.01368484 4.51497849 0.01368484 6.16918945 0.01391602 C7.92548172 0.02939987 7.92548172 0.02939987 9.71725464 0.04519653 C11.51088943 0.04944138 11.51088943 0.04944138 13.34075928 0.05377197 C17.17208733 0.06499599 21.00318436 0.09010472 24.83444214 0.11550903 C27.42688669 0.12553596 30.01933489 0.1346623 32.61178589 0.14285278 C38.97775056 0.16494257 45.34357985 0.19844197 51.70944214 0.24050903 C55.30537196 8.6368405 58.01398201 17.26892805 60.69381714 25.98660278 C61.15868485 27.48977472 61.62379744 28.99287095 62.08914185 30.49589539 C63.05659073 33.62405009 64.02105715 36.75310401 64.98336792 39.88284302 C66.21727716 43.89501908 67.45879429 47.90479425 68.70251083 51.91393948 C69.66121525 55.00730674 70.61590508 58.10190151 71.56937408 61.19688606 C72.02584568 62.67686488 72.48357596 64.1564561 72.94258881 65.63564873 C73.58088254 67.69467718 74.21374759 69.75529686 74.84518433 71.81643677 C75.20618225 72.98762558 75.56718018 74.15881439 75.93911743 75.36549377 C76.70944214 78.24050903 76.70944214 78.24050903 76.70944214 81.24050903 C77.41971558 81.37328247 78.12998901 81.50605591 78.86178589 81.64285278 C79.78088745 81.81945435 80.69998901 81.99605591 81.64694214 82.17800903 C82.56346558 82.35203247 83.47998901 82.52605591 84.42428589 82.70535278 C86.70944214 83.24050903 86.70944214 83.24050903 87.70944214 84.24050903 C87.79576088 85.58318316 87.81650687 86.93025225 87.80709839 88.27566528 C87.8022644 89.48899536 87.8022644 89.48899536 87.79733276 90.72683716 C87.7847644 92.00204224 87.7847644 92.00204224 87.77194214 93.30300903 C87.76743042 94.15701294 87.7629187 95.01101685 87.75827026 95.89089966 C87.74644587 98.00746567 87.72850982 100.12399588 87.70944214 102.24050903 C80.44251886 102.28680453 73.17562726 102.32236396 65.9085865 102.34413338 C62.5343722 102.35458045 59.16025862 102.36875628 55.78610229 102.39138794 C51.90895896 102.41555788 48.03195937 102.42697414 44.15475464 102.43582153 C42.94014557 102.4461441 41.7255365 102.45646667 40.47412109 102.46710205 C39.35311005 102.46725311 38.232099 102.46740417 37.07711792 102.46755981 C36.08672516 102.47200104 35.0963324 102.47644226 34.07592773 102.48101807 C31.70944214 102.24050903 31.70944214 102.24050903 29.70944214 100.24050903 C29.5642647 97.33115323 29.52313418 94.52056303 29.58444214 91.61550903 C29.59346558 90.81371216 29.60248901 90.01191528 29.61178589 89.18582153 C29.63537991 87.20392381 29.67125149 85.22217922 29.70944214 83.24050903 C33.99944214 83.24050903 38.28944214 83.24050903 42.70944214 83.24050903 C41.71944214 80.27050903 40.72944214 77.30050903 39.70944214 74.24050903 C30.13944214 73.91050903 20.56944214 73.58050903 10.70944214 73.24050903 C10.37944214 76.21050903 10.04944214 79.18050903 9.70944214 82.24050903 C11.00881714 82.38488403 12.30819214 82.52925903 13.64694214 82.67800903 C17.58444214 83.11550903 17.58444214 83.11550903 18.70944214 84.24050903 C18.79576088 85.58318316 18.81650687 86.93025225 18.80709839 88.27566528 C18.80387573 89.084552 18.80065308 89.89343872 18.79733276 90.72683716 C18.7847644 92.00204224 18.7847644 92.00204224 18.77194214 93.30300903 C18.76743042 94.15701294 18.7629187 95.01101685 18.75827026 95.89089966 C18.74644587 98.00746567 18.72850982 100.12399588 18.70944214 102.24050903 C12.33740621 102.29110533 5.96542184 102.3261986 -0.4067688 102.35037231 C-2.5757338 102.36044692 -4.74468518 102.37410701 -6.91360474 102.39138794 C-10.02626912 102.41557226 -13.13875437 102.42697736 -16.25149536 102.43582153 C-17.22549286 102.4461441 -18.19949036 102.45646667 -19.20300293 102.46710205 C-20.10378571 102.46725311 -21.00456848 102.46740417 -21.93264771 102.46755981 C-23.12511612 102.47422165 -23.12511612 102.47422165 -24.3416748 102.48101807 C-26.29055786 102.24050903 -26.29055786 102.24050903 -28.29055786 100.24050903 C-28.46257071 97.69821745 -28.52313403 95.27900908 -28.47805786 92.74050903 C-28.47741333 92.0508606 -28.4767688 91.36121216 -28.47610474 90.65066528 C-28.43111311 85.52161952 -28.43111311 85.52161952 -27.29055786 83.24050903 C-25.22415161 82.82644653 -25.22415161 82.82644653 -22.72805786 82.61550903 C-21.48862427 82.5033606 -21.48862427 82.5033606 -20.22415161 82.38894653 C-19.58606567 82.33996216 -18.94797974 82.29097778 -18.29055786 82.24050903 C-12.69250293 65.84562029 -7.43157866 49.38325682 -2.47854614 32.78372192 C-2.2725882 32.0951712 -2.06663025 31.40662048 -1.85443115 30.69720459 C-1.29401994 28.82153262 -0.73652817 26.94498908 -0.17922974 25.06838989 C0.70944214 22.24050903 0.70944214 22.24050903 1.70944214 20.24050903 C0.90506714 19.93113403 0.10069214 19.62175903 -0.72805786 19.30300903 C-3.29055786 18.24050903 -3.29055786 18.24050903 -4.29055786 17.24050903 C-4.41708984 14.74812334 -4.47575611 12.29580463 -4.47805786 9.80300903 C-4.49030396 9.10884888 -4.50255005 8.41468872 -4.51516724 7.69949341 C-4.52045628 5.87830003 -4.41224994 4.05763983 -4.29055786 2.24050903 C-2.29055786 0.24050903 -2.29055786 0.24050903 0 0 Z " fill="#FCF564" transform="translate(735.2905578613281,13.759490966796875)"/>
<path d="M0 0 C0.95486298 0.00444122 1.90972595 0.00888245 2.89352417 0.01345825 C4.51497849 0.01368484 4.51497849 0.01368484 6.16918945 0.01391602 C7.92548172 0.02939987 7.92548172 0.02939987 9.71725464 0.04519653 C11.51088943 0.04944138 11.51088943 0.04944138 13.34075928 0.05377197 C17.17208733 0.06499599 21.00318436 0.09010472 24.83444214 0.11550903 C27.42688669 0.12553596 30.01933489 0.1346623 32.61178589 0.14285278 C38.97775056 0.16494257 45.34357985 0.19844197 51.70944214 0.24050903 C55.46751512 9.97817547 58.93910299 19.73850312 61.98661041 29.72359848 C62.62124943 31.80206949 63.26245828 33.87842232 63.90518188 35.95440674 C65.49397289 41.09006976 67.07353194 46.22855582 68.65060425 51.36782837 C69.99799114 55.7583529 71.35020856 60.14732351 72.70967865 64.53412247 C73.34051744 66.57677466 73.96404608 68.62156742 74.58743286 70.66650391 C74.96833069 71.8960379 75.34922852 73.1255719 75.7416687 74.3923645 C76.0744281 75.47661713 76.4071875 76.56086975 76.75003052 77.67797852 C77.5522616 80.35951636 77.5522616 80.35951636 79.70944214 82.24050903 C82.03762178 82.60811634 84.37128064 82.94292484 86.70944214 83.24050903 C87.70944214 84.24050903 87.70944214 84.24050903 87.82296753 86.00637817 C87.8151123 87.12967529 87.8151123 87.12967529 87.80709839 88.27566528 C87.8022644 89.48899536 87.8022644 89.48899536 87.79733276 90.72683716 C87.7847644 92.00204224 87.7847644 92.00204224 87.77194214 93.30300903 C87.76743042 94.15701294 87.7629187 95.01101685 87.75827026 95.89089966 C87.74644587 98.00746567 87.72850982 100.12399588 87.70944214 102.24050903 C80.44251886 102.28680453 73.17562726 102.32236396 65.9085865 102.34413338 C62.5343722 102.35458045 59.16025862 102.36875628 55.78610229 102.39138794 C51.90895896 102.41555788 48.03195937 102.42697414 44.15475464 102.43582153 C42.94014557 102.4461441 41.7255365 102.45646667 40.47412109 102.46710205 C39.35311005 102.46725311 38.232099 102.46740417 37.07711792 102.46755981 C36.08672516 102.47200104 35.0963324 102.47644226 34.07592773 102.48101807 C31.70944214 102.24050903 31.70944214 102.24050903 29.70944214 100.24050903 C29.5642647 97.33115323 29.52313418 94.52056303 29.58444214 91.61550903 C29.59346558 90.81371216 29.60248901 90.01191528 29.61178589 89.18582153 C29.63537991 87.20392381 29.67125149 85.22217922 29.70944214 83.24050903 C33.99944214 83.24050903 38.28944214 83.24050903 42.70944214 83.24050903 C41.71944214 80.27050903 40.72944214 77.30050903 39.70944214 74.24050903 C30.13944214 73.91050903 20.56944214 73.58050903 10.70944214 73.24050903 C10.37944214 76.21050903 10.04944214 79.18050903 9.70944214 82.24050903 C11.00881714 82.38488403 12.30819214 82.52925903 13.64694214 82.67800903 C17.58444214 83.11550903 17.58444214 83.11550903 18.70944214 84.24050903 C18.70944214 90.18050903 18.70944214 96.12050903 18.70944214 102.24050903 C3.85944214 102.24050903 -10.99055786 102.24050903 -26.29055786 102.24050903 C-27.94553143 98.9305619 -27.39140121 95.24927903 -27.35305786 91.61550903 C-27.34854614 90.81371216 -27.34403442 90.01191528 -27.33938599 89.18582153 C-27.32758954 87.20401897 -27.30965391 85.2222547 -27.29055786 83.24050903 C-23.99055786 83.24050903 -20.69055786 83.24050903 -17.29055786 83.24050903 C-17.11799973 82.51728455 -16.94544159 81.79406006 -16.76765442 81.04891968 C-14.94674163 73.57393734 -12.82511237 66.24382477 -10.49758911 58.91238403 C-9.9712513 57.23985565 -9.9712513 57.23985565 -9.4342804 55.53353882 C-8.32717574 52.01814403 -7.21520678 48.50431084 -6.10305786 44.99050903 C-5.3455724 42.58826743 -4.58840798 40.18592456 -3.83157349 37.78347778 C-1.98827423 31.93464702 -0.14099298 26.08708584 1.70944214 20.24050903 C0.90506714 19.93113403 0.10069214 19.62175903 -0.72805786 19.30300903 C-3.29055786 18.24050903 -3.29055786 18.24050903 -4.29055786 17.24050903 C-4.41708984 14.74812334 -4.47575611 12.29580463 -4.47805786 9.80300903 C-4.49030396 9.10884888 -4.50255005 8.41468872 -4.51516724 7.69949341 C-4.52045628 5.87830003 -4.41224994 4.05763983 -4.29055786 2.24050903 C-2.29055786 0.24050903 -2.29055786 0.24050903 0 0 Z " fill="#FCF564" transform="translate(467.2905578613281,13.759490966796875)"/>
<path d="M0 0 C0.9139151 -0.00335861 1.8278302 -0.00671722 2.7694397 -0.01017761 C5.80073391 -0.01970329 8.83197299 -0.02163142 11.86328125 -0.02270508 C13.963135 -0.02591613 16.06298853 -0.02928008 18.1628418 -0.03279114 C22.56787637 -0.03878617 26.97289132 -0.04063061 31.37792969 -0.04003906 C37.03430762 -0.03993733 42.69056035 -0.05359981 48.34690857 -0.07081127 C52.68421004 -0.08190504 57.02148096 -0.08395909 61.35879517 -0.08342934 C63.44487948 -0.08461303 65.53096449 -0.08905642 67.61703491 -0.0967617 C70.52863458 -0.1065104 73.43995882 -0.10370411 76.3515625 -0.09765625 C77.65451767 -0.10608551 77.65451767 -0.10608551 78.98379517 -0.11468506 C84.94746489 -0.08305269 84.94746489 -0.08305269 87.17578125 2.14526367 C87.35095872 4.87012095 87.40727258 7.49185729 87.37109375 10.21557617 C87.36826385 11.01180389 87.36543396 11.80803162 87.36251831 12.62838745 C87.35130765 15.1758313 87.32620187 17.72292578 87.30078125 20.27026367 C87.29075258 21.99551902 87.28162653 23.72077986 87.2734375 25.44604492 C87.25136547 29.67925281 87.21682992 33.91219897 87.17578125 38.14526367 C83.88418809 38.20316721 80.59272522 38.23882628 77.30078125 38.27026367 C76.36363281 38.28702148 75.42648437 38.3037793 74.4609375 38.32104492 C73.56503906 38.32749023 72.66914062 38.33393555 71.74609375 38.34057617 C70.91867676 38.3510498 70.09125977 38.36152344 69.23876953 38.37231445 C67.17578125 38.14526367 67.17578125 38.14526367 65.17578125 36.14526367 C64.86939535 33.41091406 64.66444765 30.76246546 64.55078125 28.02026367 C64.51210938 27.26616211 64.4734375 26.51206055 64.43359375 25.73510742 C64.33927094 23.87223183 64.25643463 22.00878113 64.17578125 20.14526367 C62.69671233 20.11837151 61.21750642 20.09891746 59.73828125 20.08276367 C58.91457031 20.07116211 58.09085938 20.05956055 57.2421875 20.04760742 C55.18414187 19.91259019 55.18414187 19.91259019 54.17578125 21.14526367 C54.08191744 23.01707307 54.05834321 24.89244427 54.06225586 26.76660156 C54.06233139 27.96777115 54.06240692 29.16894073 54.06248474 30.4065094 C54.06764603 31.71377487 54.07280731 33.02104034 54.078125 34.36791992 C54.07998927 35.71170499 54.08141313 37.05549074 54.08241272 38.39927673 C54.08623723 41.94208644 54.09606693 45.48485537 54.1071167 49.02764893 C54.11733226 52.64041594 54.12191065 56.25318952 54.12695312 59.8659668 C54.13768927 66.95908247 54.15476489 74.05217041 54.17578125 81.14526367 C54.88605469 81.20584961 55.59632813 81.26643555 56.328125 81.32885742 C57.70677734 81.45454102 57.70677734 81.45454102 59.11328125 81.58276367 C60.48806641 81.70458008 60.48806641 81.70458008 61.890625 81.82885742 C64.17578125 82.14526367 64.17578125 82.14526367 65.17578125 83.14526367 C65.26229736 84.5609649 65.28283029 85.98085868 65.2734375 87.39916992 C65.26860352 88.68017578 65.26860352 88.68017578 65.26367188 89.98706055 C65.25110352 91.33380859 65.25110352 91.33380859 65.23828125 92.70776367 C65.23376953 93.60946289 65.22925781 94.51116211 65.22460938 95.44018555 C65.2127835 97.67527681 65.19630345 99.91023804 65.17578125 102.14526367 C57.8068331 102.19584512 50.43792947 102.230947 43.06884766 102.25512695 C40.5603671 102.26520378 38.05189833 102.27886546 35.54345703 102.29614258 C31.94430637 102.32031704 28.34531058 102.33172979 24.74609375 102.34057617 C23.6189798 102.35089874 22.49186584 102.36122131 21.33059692 102.37185669 C20.28966888 102.37200775 19.24874084 102.37215881 18.17626953 102.37231445 C16.79726974 102.37897629 16.79726974 102.37897629 15.39041138 102.38577271 C13.17578125 102.14526367 13.17578125 102.14526367 11.17578125 100.14526367 C11.03060381 97.23590787 10.98947329 94.42531767 11.05078125 91.52026367 C11.05980469 90.7184668 11.06882812 89.91666992 11.078125 89.09057617 C11.10171902 87.10867845 11.1375906 85.12693386 11.17578125 83.14526367 C13.70053587 81.88288636 15.48778591 82.04669963 18.30078125 82.08276367 C19.66589844 82.09629883 19.66589844 82.09629883 21.05859375 82.11010742 C21.75726562 82.12170898 22.4559375 82.13331055 23.17578125 82.14526367 C23.06842785 74.20903126 22.95582514 66.27289842 22.83644199 58.33683872 C22.7811796 54.65216177 22.72775446 50.96747694 22.6784668 47.28271484 C22.63087193 43.72948526 22.57853118 40.17635493 22.5228405 36.62324333 C22.50239475 35.26483556 22.4836854 33.90640056 22.46670723 32.54794502 C22.44271248 30.65136662 22.41207793 28.75487569 22.38110352 26.85839844 C22.35778709 25.23624168 22.35778709 25.23624168 22.33399963 23.58131409 C22.44820106 21.19775316 22.44820106 21.19775316 21.17578125 20.14526367 C19.67840001 20.04735798 18.17635233 20.01551503 16.67578125 20.02026367 C15.86109375 20.01768555 15.04640625 20.01510742 14.20703125 20.01245117 C12.18047748 19.92074587 12.18047748 19.92074587 11.17578125 21.14526367 C10.93876886 24.00404276 10.75358943 26.84409665 10.61328125 29.70776367 C10.57009766 30.51407227 10.52691406 31.32038086 10.48242188 32.15112305 C10.37602863 34.14895172 10.27537237 36.14708437 10.17578125 38.14526367 C6.86329938 38.17414514 3.55084958 38.19202166 0.23828125 38.20776367 C-0.70724609 38.21614258 -1.65277344 38.22452148 -2.62695312 38.2331543 C-3.97563477 38.23798828 -3.97563477 38.23798828 -5.3515625 38.24291992 C-6.60054321 38.25077515 -6.60054321 38.25077515 -7.87475586 38.25878906 C-9.82421875 38.14526367 -9.82421875 38.14526367 -10.82421875 37.14526367 C-10.91277036 34.47900337 -10.93946548 31.83879253 -10.921875 29.17260742 C-10.92046005 28.37496475 -10.9190451 27.57732208 -10.91758728 26.75550842 C-10.91197191 24.19788932 -10.89941687 21.64035649 -10.88671875 19.08276367 C-10.88170573 17.35294722 -10.87714248 15.62312941 -10.87304688 13.89331055 C-10.8619975 9.64392814 -10.84472261 5.39461055 -10.82421875 1.14526367 C-7.47085969 -0.53141586 -3.68788415 -0.00192405 0 0 Z " fill="#FCF564" transform="translate(945.82421875,13.854736328125)"/>
<path d="M0 0 C6.78160369 5.36219827 9.72797125 11.69372152 11 20 C11.29155101 23.98372533 11.32506496 27.94435588 11.3125 31.9375 C11.32861328 32.95779297 11.34472656 33.97808594 11.36132812 35.02929688 C11.36699106 43.90312153 10.25981854 53.07476093 3.8671875 59.76953125 C0.78506244 61.80063877 -1.91647613 61.89694558 -5.53515625 61.59765625 C-9.89331999 60.54092241 -12.44211324 58.67356077 -15 55 C-20.57444257 42.55947573 -21.4359238 29.77243781 -18.25 16.625 C-18.09313721 15.95936035 -17.93627441 15.2937207 -17.7746582 14.60791016 C-16.34043477 9.13103393 -14.12120585 4.71989663 -9.6875 1.125 C-6.14352224 -0.35852558 -3.80839006 -0.54405572 0 0 Z M-10.89453125 26.10546875 C-14.87661017 32.92987963 -15.82254192 39.30069024 -14 47 C-12.20595244 52.13468785 -9.90565796 56.31356826 -5 59 C-1.93503351 59.32294477 -1.93503351 59.32294477 1 58 C6.21636531 53.02074221 7.98188763 47.89033305 8.375 40.6875 C8.20689857 34.14275107 6.01536299 28.22750646 1.625 23.375 C-3.77369669 20.54711126 -7.22442085 21.03382752 -10.89453125 26.10546875 Z " fill="#060DA6" transform="translate(1092,34)"/>
<path d="M0 0 C5.56336997 0.44865887 9.71493398 1.23004115 13.83203125 5.19921875 C20.6714138 13.44967391 22.42669867 21.64102411 22.3125 32.1875 C22.30222778 33.6405957 22.30222778 33.6405957 22.29174805 35.12304688 C22.09874121 43.71076695 20.70071987 50.81088361 15.5 57.8125 C9.97220122 63.07707026 5.56064729 63.63534449 -1.83203125 63.515625 C-4.125 63.3125 -4.125 63.3125 -5.125 62.3125 C-5.22934618 60.45159424 -5.26354637 58.58671724 -5.27026367 56.72290039 C-5.27664352 55.52818619 -5.28302338 54.33347198 -5.28959656 53.10255432 C-5.29070938 51.80156296 -5.2918222 50.50057159 -5.29296875 49.16015625 C-5.29617976 47.82116154 -5.29954371 46.48216718 -5.30305481 45.14317322 C-5.30905208 42.3328266 -5.31089411 39.52251077 -5.31030273 36.7121582 C-5.31020109 33.1060364 -5.32385245 29.50011142 -5.34107494 25.89403629 C-5.35217859 23.12742705 -5.35422245 20.36086562 -5.35369301 17.59423637 C-5.3554519 15.61660686 -5.36630352 13.63899226 -5.37724304 11.66139221 C-5.37416641 10.46352585 -5.37108978 9.26565948 -5.36791992 8.03149414 C-5.36934494 6.97305801 -5.37076996 5.91462189 -5.37223816 4.82411194 C-4.98632055 0.90370062 -3.82745607 0.38274561 0 0 Z M-1.125 23.3125 C-1.125 35.8525 -1.125 48.3925 -1.125 61.3125 C6.946483 60.30356463 10.22618898 59.69709186 15.125 53.4375 C18.62866136 47.18096186 19.68930592 42.27519348 17.875 35.3125 C15.47038529 29.85883384 12.3593568 25.89337379 6.875 23.3125 C4.235 23.3125 1.595 23.3125 -1.125 23.3125 Z " fill="#060DA6" transform="translate(268.125,32.6875)"/>
<path d="M0 0 C4.21806576 0.09116857 6.87830527 0.50469841 10.1875 3.3125 C13.96423934 7.42166627 13.74317656 11.07596276 13.60546875 16.453125 C13.1875 19.3125 13.1875 19.3125 11 22.5 C5.92350957 25.77151605 1.07635771 25.60211595 -4.8125 25.3125 C-7.30307251 22.82192749 -7.0690813 22.02777341 -7.078125 18.59375 C-7.08070313 17.66175781 -7.08328125 16.72976562 -7.0859375 15.76953125 C-7.07820312 14.79371094 -7.07046875 13.81789063 -7.0625 12.8125 C-7.07023438 11.83667969 -7.07796875 10.86085938 -7.0859375 9.85546875 C-7.08335937 8.92347656 -7.08078125 7.99148437 -7.078125 7.03125 C-7.07586914 6.17466797 -7.07361328 5.31808594 -7.07128906 4.43554688 C-6.53089677 0.00229089 -3.82172468 0.01718917 0 0 Z " fill="#070DA6" transform="translate(873.8125,32.6875)"/>
<path d="M0 0 C0.33 0 0.66 0 1 0 C1.24234375 0.93199219 1.4846875 1.86398438 1.734375 2.82421875 C3.73713359 10.44240433 5.86533426 17.98275675 8.265625 25.48828125 C9 28 9 28 9 30 C3.39 30 -2.22 30 -8 30 C-9.1856466 26.44306021 -8.72681647 25.33502165 -7.63671875 21.81640625 C-7.32669922 20.80642578 -7.01667969 19.79644531 -6.69726562 18.75585938 C-6.36404297 17.70205078 -6.03082031 16.64824219 -5.6875 15.5625 C-5.36587891 14.51255859 -5.04425781 13.46261719 -4.71289062 12.38085938 C-2.0798308 3.89775698 -2.0798308 3.89775698 0 0 Z " fill="#070DA5" transform="translate(761,39)"/>
<path d="M0 0 C1.62885046 3.04105579 2.72357141 6.05340776 3.7265625 9.3515625 C4.0359375 10.36734375 4.3453125 11.383125 4.6640625 12.4296875 C4.98117187 13.48414063 5.29828125 14.53859375 5.625 15.625 C5.94984375 16.6871875 6.2746875 17.749375 6.609375 18.84375 C9 26.73883929 9 26.73883929 9 29 C3.39 29 -2.22 29 -8 29 C-9.23983336 25.28049993 -8.58401548 23.96048746 -7.3828125 20.2734375 C-7.02316406 19.1596875 -6.66351563 18.0459375 -6.29296875 16.8984375 C-5.71482422 15.15433594 -5.71482422 15.15433594 -5.125 13.375 C-4.55845703 11.61929688 -4.55845703 11.61929688 -3.98046875 9.828125 C-1.15225635 1.15225635 -1.15225635 1.15225635 0 0 Z " fill="#070DA6" transform="translate(493,40)"/>
<path d="M0 0 C0.33 0 0.66 0 1 0 C1 13.2 1 26.4 1 40 C0.67 40 0.34 40 0 40 C0 26.8 0 13.6 0 0 Z " fill="#070DA6" transform="translate(593,95)"/>
<path d="M0 0 C0.33 0 0.66 0 1 0 C1 13.2 1 26.4 1 40 C0.67 40 0.34 40 0 40 C0 26.8 0 13.6 0 0 Z " fill="#070DA6" transform="translate(593,12)"/>
</svg>
